<?xml version="1.0"?><svg width="793.7007874015748" height="744.5669291338581" xmlns="http://www.w3.org/2000/svg" xmlns:xlink="http://www.w3.org/1999/xlink">
 <title>DeathStar by Oded Sagir</title>
 <defs>
  <linearGradient id="linearGradient7777">
   <stop stop-color="#ffffff" stop-opacity="0.463918" offset="0" id="stop7779"/>
   <stop stop-color="#91918f" stop-opacity="0" offset="0.5" id="stop7783"/>
   <stop stop-color="#5a5a57" stop-opacity="0.195876" offset="0.689719" id="stop7785"/>
   <stop stop-color="#3f3e3b" stop-opacity="0.453608" offset="0.865385" id="stop7787"/>
   <stop stop-color="#171715" stop-opacity="0.742268" offset="1" id="stop7781"/>
  </linearGradient>
  <linearGradient id="linearGradient6023">
   <stop stop-color="#dfba49" offset="0" id="stop6025"/>
   <stop stop-color="#e4c873" stop-opacity="0.653061" offset="1" id="stop6027"/>
  </linearGradient>
  <linearGradient id="linearGradient5931">
   <stop stop-color="#daa02f" stop-opacity="0.447059" offset="0" id="stop5933"/>
   <stop stop-color="#bc9624" stop-opacity="0.295918" offset="1" id="stop5935"/>
  </linearGradient>
  <linearGradient id="linearGradient5914">
   <stop stop-color="#d9ab26" offset="0" id="stop5916"/>
   <stop stop-color="#d2a028" stop-opacity="0.654902" offset="1" id="stop5918"/>
  </linearGradient>
  <linearGradient id="linearGradient4436">
   <stop stop-color="#cc9223" stop-opacity="0.776471" offset="0" id="stop4438"/>
   <stop stop-color="#c29e33" stop-opacity="0.529412" offset="1" id="stop4440"/>
  </linearGradient>
  <linearGradient id="linearGradient4418">
   <stop stop-color="#e2c05b" offset="0" id="stop4420"/>
   <stop stop-color="#e4c873" stop-opacity="0.653061" offset="1" id="stop4422"/>
  </linearGradient>
  <linearGradient id="linearGradient4347">
   <stop stop-color="#f7eed4" offset="0" id="stop4349"/>
   <stop stop-color="#f8f1dc" stop-opacity="0" offset="1" id="stop4351"/>
  </linearGradient>
  <linearGradient id="linearGradient4322">
   <stop stop-color="#ffffff" offset="0" id="stop4324"/>
   <stop stop-color="#f8f1dc" stop-opacity="0" offset="1" id="stop4326"/>
  </linearGradient>
  <radialGradient xlink:href="#linearGradient4322" r="207.65597" id="radialGradient4331" gradientUnits="userSpaceOnUse" gradientTransform="matrix(0.321661,0.602103,-0.516262,0.275802,958.7179,-281.8280)" fy="1112.5737" fx="566.5874" cy="1112.5737" cx="566.5874"/>
  <radialGradient xlink:href="#linearGradient4322" r="207.65597" id="radialGradient4333" gradientUnits="userSpaceOnUse" gradientTransform="matrix(1.505209,-0.323589,5.287274e-2,0.245942,-176.3762,201.3517)" fy="122.71932" fx="336.27261" cy="122.71932" cx="336.27261"/>
  <radialGradient xlink:href="#linearGradient4322" r="207.65597" id="radialGradient4339" gradientUnits="userSpaceOnUse" gradientTransform="matrix(1.310467,-0.288056,0.159009,0.723390,-223.1215,-199.4319)" fy="801.80664" fx="307.26144" cy="801.80664" cx="307.26144"/>
  <radialGradient xlink:href="#linearGradient4322" r="207.65597" id="radialGradient4341" gradientUnits="userSpaceOnUse" gradientTransform="matrix(0.244022,3.268460e-2,-1.365773e-2,0.101968,222.7710,253.0544)" fy="1176.9749" fx="273.41547" cy="1176.9749" cx="273.41547"/>
  <radialGradient xlink:href="#linearGradient4322" r="207.65597" id="radialGradient4343" gradientUnits="userSpaceOnUse" gradientTransform="matrix(1.767119,0.380124,-0.143843,0.668695,85.96779,-671.5904)" fy="1632.9476" fx="194.12976" cy="1632.9476" cx="194.12976"/>
  <radialGradient xlink:href="#linearGradient4347" r="207.65597" id="radialGradient4345" gradientUnits="userSpaceOnUse" gradientTransform="matrix(1.008901,0.278994,-6.590188e-2,0.238314,124.8449,31.64674)" fy="1995.5389" fx="260.61557" cy="1995.5389" cx="260.61557"/>
  <radialGradient xlink:href="#linearGradient4347" r="207.65597" id="radialGradient4353" gradientUnits="userSpaceOnUse" gradientTransform="matrix(0.839444,-0.254133,7.350131e-2,0.242787,-37.73429,-80.89279)" fy="1501.6678" fx="48.570953" cy="1501.6678" cx="48.570953"/>
  <radialGradient xlink:href="#linearGradient4347" r="207.65597" id="radialGradient4355" gradientUnits="userSpaceOnUse" gradientTransform="matrix(0.438649,4.097118e-2,-3.858412e-2,0.413089,324.5856,-225.2632)" fy="1807.3854" fx="418.47516" cy="1807.3854" cx="418.47516"/>
  <radialGradient xlink:href="#linearGradient4347" r="207.65597" id="radialGradient4412" gradientUnits="userSpaceOnUse" gradientTransform="matrix(0.299159,-5.584989e-2,2.367693e-2,0.126825,365.4732,128.1100)" fy="1287.8252" fx="423.63354" cy="1287.8252" cx="423.63354"/>
  <radialGradient xlink:href="#linearGradient4347" r="207.65597" id="radialGradient4414" gradientUnits="userSpaceOnUse" gradientTransform="matrix(0.154171,1.542934e-2,-5.388742e-2,0.538446,476.8363,-444.9566)" fy="1548.5298" fx="393.96121" cy="1548.5298" cx="393.96121"/>
  <radialGradient xlink:href="#linearGradient4347" r="207.65597" id="radialGradient4416" gradientUnits="userSpaceOnUse" gradientTransform="matrix(3.094837e-2,3.314703e-2,-0.151999,0.141917,713.9893,115.7276)" fy="1448.4443" fx="771.3219" cy="1448.4443" cx="771.3219"/>
  <radialGradient xlink:href="#linearGradient6023" r="207.65597" id="radialGradient4424" gradientUnits="userSpaceOnUse" gradientTransform="matrix(0.843856,0.652145,-0.939011,1.215055,1574.388,-1731.229)" fy="1533.6655" fx="374.82452" cy="1533.6655" cx="374.82452"/>
  <radialGradient xlink:href="#linearGradient4418" r="207.65597" id="radialGradient4426" gradientUnits="userSpaceOnUse" gradientTransform="matrix(1.092406e-2,0.124507,-0.749642,6.577231e-2,1401.774,79.75977)" fy="1406.5156" fx="158.98811" cy="1406.5156" cx="158.98811"/>
  <radialGradient xlink:href="#linearGradient4418" r="207.65597" id="radialGradient4428" gradientUnits="userSpaceOnUse" gradientTransform="matrix(2.381204e-2,0.122696,-0.722124,0.140145,1353.179,-26.71438)" fy="1448.1531" fx="678.49969" cy="1448.1531" cx="678.49969"/>
  <radialGradient xlink:href="#linearGradient4418" r="207.65597" id="radialGradient4430" gradientUnits="userSpaceOnUse" gradientTransform="matrix(0.122801,2.326305e-2,-2.093068e-2,0.110489,26.20736,208.2349)" fy="1585.348" fx="1969.1726" cy="1585.348" cx="1969.1726"/>
  <radialGradient xlink:href="#linearGradient4418" r="207.65597" id="radialGradient4432" gradientUnits="userSpaceOnUse" gradientTransform="matrix(0.122801,2.326305e-2,-2.093068e-2,0.110489,26.20736,208.2349)" fy="1760.1962" fx="1641.7333" cy="1760.1962" cx="1641.7333"/>
  <radialGradient xlink:href="#linearGradient4436" r="207.65597" id="radialGradient4434" gradientUnits="userSpaceOnUse" gradientTransform="matrix(0.122801,2.326305e-2,-2.093068e-2,0.110489,26.20736,208.2349)" fy="1456.2902" fx="3351.6338" cy="1456.2902" cx="3351.6338"/>
  <radialGradient xlink:href="#linearGradient4436" r="207.65597" id="radialGradient4442" gradientUnits="userSpaceOnUse" gradientTransform="matrix(0.122801,2.326305e-2,-2.093068e-2,0.110489,26.20736,208.2349)" fy="1289.2784" fx="2793.856" cy="1289.2784" cx="2793.856"/>
  <radialGradient xlink:href="#linearGradient4436" r="207.65597" id="radialGradient4444" gradientUnits="userSpaceOnUse" gradientTransform="matrix(0.397726,-9.336652e-2,1.165638e-2,4.965408e-2,-906.3300,607.2522)" fy="72.615036" fx="3383.3589" cy="72.615036" cx="3383.3589"/>
  <radialGradient xlink:href="#linearGradient4436" r="207.65597" id="radialGradient4446" gradientUnits="userSpaceOnUse" gradientTransform="matrix(0.153759,-6.062851e-2,4.125068e-2,0.104615,-76.90753,606.2165)" fy="-728.98163" fx="4795.043" cy="-728.98163" cx="4795.043"/>
  <radialGradient xlink:href="#linearGradient4436" r="207.65597" id="radialGradient4448" gradientUnits="userSpaceOnUse" gradientTransform="matrix(0.105022,1.451579e-2,-1.036425e-2,7.245137e-2,78.67695,305.2352)" fy="1670.6855" fx="4144.9312" cy="1670.6855" cx="4144.9312"/>
  <radialGradient xlink:href="#linearGradient4436" r="207.65597" id="radialGradient4450" gradientUnits="userSpaceOnUse" gradientTransform="matrix(1.306962e-2,-0.351766,9.258122e-2,3.439745e-3,550.9936,2241.009)" fy="484.8938" fx="5263.6245" cy="484.8938" cx="5263.6245"/>
  <radialGradient xlink:href="#linearGradient4418" r="207.65597" id="radialGradient5906" gradientUnits="userSpaceOnUse" gradientTransform="matrix(-1.174024e-2,0.124536,-0.934797,-8.812592e-2,1779.079,309.6059)" fy="1497.6819" fx="3020.4219" cy="1497.6819" cx="3020.4219"/>
  <radialGradient xlink:href="#linearGradient5931" r="207.65597" id="radialGradient5929" gradientUnits="userSpaceOnUse" gradientTransform="matrix(0.642014,0.223057,-3.392673e-2,9.764972e-2,-1574.569,-591.2604)" fy="3110.4795" fx="3315.8777" cy="3110.4795" cx="3315.8777"/>
  <radialGradient xlink:href="#linearGradient5931" r="207.65597" id="radialGradient5938" gradientUnits="userSpaceOnUse" gradientTransform="matrix(0.642014,0.223057,-3.392673e-2,9.764972e-2,-1574.569,-591.2604)" fy="3110.4795" fx="3315.8777" cy="3110.4795" cx="3315.8777"/>
  <radialGradient xlink:href="#linearGradient4436" r="207.65597" id="radialGradient5940" gradientUnits="userSpaceOnUse" gradientTransform="matrix(0.397726,-9.336652e-2,1.165638e-2,4.965408e-2,-906.3300,607.2522)" fy="72.615036" fx="3383.3589" cy="72.615036" cx="3383.3589"/>
  <radialGradient xlink:href="#linearGradient4436" r="207.65597" id="radialGradient5943" gradientUnits="userSpaceOnUse" gradientTransform="matrix(0.397726,-9.336652e-2,1.165638e-2,4.965408e-2,-906.3300,607.2522)" fy="72.615036" fx="3383.3589" cy="72.615036" cx="3383.3589"/>
  <radialGradient xlink:href="#linearGradient4436" r="207.65597" id="radialGradient5950" gradientUnits="userSpaceOnUse" gradientTransform="matrix(0.122801,2.326305e-2,-2.093068e-2,0.110489,26.20736,208.2349)" fy="1456.2902" fx="3351.6338" cy="1456.2902" cx="3351.6338"/>
  <radialGradient xlink:href="#linearGradient4436" r="207.65597" id="radialGradient5953" gradientUnits="userSpaceOnUse" gradientTransform="matrix(0.122801,2.326305e-2,-2.093068e-2,0.110489,26.20736,208.2349)" fy="1456.2902" fx="3351.6338" cy="1456.2902" cx="3351.6338"/>
  <radialGradient xlink:href="#linearGradient4436" r="207.65597" id="radialGradient5956" gradientUnits="userSpaceOnUse" gradientTransform="matrix(0.122801,2.326305e-2,-2.093068e-2,0.110489,26.20736,208.2349)" fy="1456.2902" fx="3351.6338" cy="1456.2902" cx="3351.6338"/>
  <radialGradient xlink:href="#linearGradient4436" r="207.65597" id="radialGradient5959" gradientUnits="userSpaceOnUse" gradientTransform="matrix(0.122801,2.326305e-2,-2.093068e-2,0.110489,26.20736,208.2349)" fy="1456.2902" fx="3351.6338" cy="1456.2902" cx="3351.6338"/>
  <radialGradient xlink:href="#linearGradient4436" r="207.65597" id="radialGradient5962" gradientUnits="userSpaceOnUse" gradientTransform="matrix(0.122801,2.326305e-2,-2.093068e-2,0.110489,26.20736,208.2349)" fy="1456.2902" fx="3351.6338" cy="1456.2902" cx="3351.6338"/>
  <radialGradient xlink:href="#linearGradient4436" r="207.65597" id="radialGradient5965" gradientUnits="userSpaceOnUse" gradientTransform="matrix(0.122801,2.326305e-2,-2.093068e-2,0.110489,26.20736,208.2349)" fy="1456.2902" fx="3351.6338" cy="1456.2902" cx="3351.6338"/>
  <radialGradient xlink:href="#linearGradient4436" r="207.65597" id="radialGradient5968" gradientUnits="userSpaceOnUse" gradientTransform="matrix(0.122801,2.326305e-2,-2.093068e-2,0.110489,26.20736,208.2349)" fy="1456.2902" fx="3351.6338" cy="1456.2902" cx="3351.6338"/>
  <radialGradient xlink:href="#linearGradient4436" r="207.65597" id="radialGradient5971" gradientUnits="userSpaceOnUse" gradientTransform="matrix(0.122801,2.326305e-2,-2.093068e-2,0.110489,26.20736,208.2349)" fy="1456.2902" fx="3351.6338" cy="1456.2902" cx="3351.6338"/>
  <radialGradient xlink:href="#linearGradient4436" r="207.65597" id="radialGradient6002" gradientUnits="userSpaceOnUse" gradientTransform="matrix(1.306962e-2,-0.351766,9.258122e-2,3.439745e-3,550.9936,2241.009)" fy="484.8938" fx="5263.6245" cy="484.8938" cx="5263.6245"/>
  <radialGradient xlink:href="#linearGradient4418" r="207.65597" id="radialGradient6005" gradientUnits="userSpaceOnUse" gradientTransform="matrix(-1.174024e-2,0.124536,-0.934797,-8.812592e-2,1779.079,309.6059)" fy="1497.6819" fx="3020.4219" cy="1497.6819" cx="3020.4219"/>
  <radialGradient xlink:href="#linearGradient4418" r="207.65597" id="radialGradient6008" gradientUnits="userSpaceOnUse" gradientTransform="matrix(-1.174024e-2,0.124536,-0.934797,-8.812592e-2,1779.079,309.6059)" fy="1497.6819" fx="3020.4219" cy="1497.6819" cx="3020.4219"/>
  <radialGradient xlink:href="#linearGradient4418" r="207.65597" id="radialGradient6012" gradientUnits="userSpaceOnUse" gradientTransform="matrix(0.126472,5.570594e-2,-9.438445e-2,0.214285,665.9857,70.58062)" fy="1501.5052" fx="501.55704" cy="1501.5052" cx="501.55704"/>
  <radialGradient xlink:href="#linearGradient5931" r="207.65597" id="radialGradient6017" gradientUnits="userSpaceOnUse" gradientTransform="matrix(0.349515,-0.198720,7.381132e-2,0.129821,-698.7382,817.3251)" fy="1146.8718" fx="3420.9866" cy="1146.8718" cx="3420.9866"/>
  <radialGradient xlink:href="#linearGradient4436" r="207.65597" id="radialGradient6019" gradientUnits="userSpaceOnUse" gradientTransform="matrix(0.171072,-8.921504e-3,8.027016e-3,0.153920,-177.6446,252.5097)" fy="1456.2902" fx="3351.6338" cy="1456.2902" cx="3351.6338"/>
  <radialGradient xlink:href="#linearGradient4436" r="207.65597" id="radialGradient6021" gradientUnits="userSpaceOnUse" gradientTransform="matrix(0.161261,3.061749e-2,-2.748589e-2,0.145419,-72.40881,142.9461)" fy="1289.2784" fx="2793.856" cy="1289.2784" cx="2793.856"/>
  <radialGradient xlink:href="#linearGradient4418" r="207.65597" id="radialGradient6031" gradientUnits="userSpaceOnUse" gradientTransform="matrix(-0.106271,-0.194771,0.544932,-0.297324,122.6551,642.4028)" fy="1049.411" fx="565.63556" cy="1049.411" cx="565.63556"/>
  <radialGradient xlink:href="#linearGradient7777" r="304.28571" id="radialGradient7775" gradientUnits="userSpaceOnUse" fy="359.50504" fx="365.71429" cy="359.50504" cx="365.71429"/>
  <radialGradient spreadMethod="pad" id="svg_2">
   <stop offset="0" stop-color="#bfbfbf"/>
   <stop offset="1" stop-color="#404040"/>
  </radialGradient>
  <linearGradient spreadMethod="pad" id="svg_3">
   <stop offset="0" stop-color="#bfbfbf"/>
   <stop offset="0.558594" stop-color="#404040"/>
  </linearGradient>
 </defs>
 <g>
  <title>Layer 1</title>
  <g id="layer1">
   <g id="g6033">
    <path fill="url(#svg_3)" fill-rule="evenodd" stroke-width="1.988371" marker-start="none" marker-mid="none" marker-end="none" stroke-miterlimit="4" stroke-dashoffset="0" id="path1379" d="m674.278687,358.076294a306.421509,305.709442 0 1 1 -612.843002,0a306.421509,305.709442 0 1 1 612.843002,0z"/>
    <path fill="url(#svg_3)" fill-rule="evenodd" stroke-width="1px" marker-start="none" marker-mid="none" marker-end="none" stroke-miterlimit="4" stroke-dashoffset="0" id="path2836" d="m522.053589,622.272888c5.298523,-2.946411 7.658691,-4.521423 11.160706,-6.696411c-4.622986,-2.085693 -11.066467,-9.283203 -16.071411,-11.785706c-6.02417,-3.012085 -6.975372,-6.472839 -8.571442,-12.857178c-1.205597,-4.822388 12.54483,-4.285706 17.142853,-4.285706c10.253723,0 -0.522522,-10.522522 -1.428589,-11.428528c-2.296143,-2.296143 -15.764252,-3.226807 -20,-4.285767c-7.464478,-1.866089 -11.797668,-2.857117 -20,-2.857117c-8.92627,0 -11.452515,1.476501 -14.285706,7.142883c-2.331024,4.662048 -2.336548,13.244446 -4.285706,17.142822c-2.253052,4.506104 -18.620056,0.344971 -20,0c-5.17923,-1.2948 -13.588135,-7.333923 -17.142853,-10c-6.031342,-4.523499 -11.31778,-7.115173 -17.142883,-8.571411c-7.037109,-1.759277 -13.978302,-6.555176 -18.571411,-10c-3.350067,-2.512573 -13.540894,-4.813782 -17.142853,-5.714294c-6.663666,-1.665955 -12.260437,-1.428589 -20,-1.428589c-5.490173,0 -15.127411,-1.28186 -21.428589,-2.857117c-10.085968,-2.521484 -20.123505,-1.816589 -30,-4.285706c-7.648346,-1.912109 -16.154968,-4.285706 -24.285706,-4.285706c-7.804993,0 -18.290955,-5.287048 -25.714294,-7.142883c-5.983093,-1.495789 -14.520248,-6.961609 -18.571411,-10c-4.095581,-3.071655 -11.705688,-5.13855 -15.714294,-7.142883c-4.813522,-2.406738 -13.224396,-1.428528 -20,-1.428528c-7.329605,0 -12.967926,-1.456299 -18.571426,-2.857178c-5.721466,-1.430359 -9.76973,-5.484009 -12.857147,-8.571411c-4.002609,-4.002625 1.264328,-13.628723 1.428574,-14.285736c0.30217,-1.208679 12.499054,-2.853333 14.285706,-10c2.18335,-8.733368 11.94458,1.032013 12.857147,2.857147c2.801041,5.602081 12.495132,1.338074 18.571442,2.857147c5.472549,1.368134 7.029221,8.457794 10,11.428589c5.852615,5.852631 2.372009,-2.345245 4.285706,-10c0.867142,-3.468597 14.810715,-2.857147 18.571426,-2.857147c5.196472,0 14.48494,1.83551 18.571426,2.857147c10.180573,2.545135 10.628326,-5.200073 25.714294,-1.428589c6.71167,1.677917 10.366211,6.877289 17.142853,8.571442c9.81427,2.453552 11.653442,-1.203705 17.142853,4.285706c5.161041,5.161041 1.97171,10.885437 10,2.857147c6.399506,-6.399506 3.32547,-2.412445 5.714294,7.142853c1.997925,7.99176 10.561127,-1.989716 12.857147,-4.285706c4.259155,-4.259186 -5.714294,11.119446 -5.714294,17.142883c0,2.419373 14.194946,4.95459 15.714294,5.714233c3.7117,1.855896 3.784973,12.002869 2.857147,15.714294c-2.566986,10.267822 1.98465,8.293396 7.142853,5.714294c5.970734,-2.985352 4.077271,-10.833679 2.857147,-15.714294c-1.58606,-6.344177 -3.042725,-10.686279 -1.428589,-17.142822c0.682678,-2.730652 5.326782,10.12146 4.285706,14.285706c-2.808868,11.235535 5.882172,8.529419 11.428589,7.142822c0.741455,-0.185364 0,-19.493286 0,-21.428528c0,-2.380981 5.714294,1.904724 5.714294,4.285706c0,1.391663 16.426239,-7.854858 5.714264,2.857117c-8.047089,8.047119 3.871613,4.492798 7.142853,2.857178c5.54364,-2.771851 5.576233,1.290466 10,5.714294c2.232758,2.232727 0.605347,-20.016113 0,-21.428589c-0.905792,-2.113556 -11.319214,-7.033508 -12.857117,-8.571442c-3.931152,-3.931152 -8.241974,-5.384827 -12.857147,-10c-7.338318,-7.338318 -7.84848,-2.15152 -10,0c-3.839172,3.839172 9.017975,6.160828 12.857147,10c2.942169,2.942169 13.603912,8.571442 1.428558,8.571442c-3.733063,0 -11.728394,-5.864197 -14.285706,-7.142883c-5.072052,-2.536011 -4.458099,-10.689545 -5.714294,-15.714264c-1.756012,-7.024078 -1.66391,-13.798523 -2.857147,-18.571442c-2.260864,-9.043488 2.848602,-15.70575 -4.285706,-8.571442c-1.292053,1.292053 3.481934,15.356354 4.285706,18.571442c1.557373,6.229523 0,14.96933 0,21.428558c0,10.618378 -6.370422,-6.910309 -7.142853,-10c-1.709076,-6.836304 -2.857147,-11.161346 -2.857147,-18.571411c0,-6.982758 -3.518188,-11.322144 -5.714294,-15.714294c-2.904663,-5.809357 -2.983429,-10.126282 -7.142853,-14.285706c-0.511688,-0.511688 2.39856,15.308502 2.857147,17.142853c1.536682,6.146759 4.093109,10.658173 5.714294,17.142853c1.431763,5.727081 2.857147,10.049957 2.857147,18.571442c0,12.412201 -4.71698,4.851746 -7.142853,0c-2.457947,-4.915863 -5.400787,-9.686493 -8.571442,-12.857147c-6.092712,-6.092712 3.834381,-11.541412 -7.142853,-14.285706c-7.586731,-1.896698 -5.784027,-5.017456 -14.285706,-7.142883c-4.432953,-1.108215 6.438751,-10.724457 7.142853,-11.428558c7.260834,-7.260864 -18.155609,-5.922211 -4.285736,-12.857147c7.452271,-3.726135 -7.387543,-9.408051 -8.571411,-10c-0.922577,-0.461273 -8.571442,-19.441528 -8.571442,-4.285706c0,8.340027 -0.312897,7.299316 -8.571411,11.428558c-3.864105,1.932068 1.428558,12.656647 1.428558,17.142853c0,8.224274 3.166718,10.309601 7.142853,14.285736c6.053589,6.053558 5.99295,13.283936 -1.428558,11.428558c-5.748016,-1.436981 -9.386902,-4.285706 -18.571442,-4.285706c-8.660217,0 -2.479431,-8.571442 -12.857147,-8.571442c-8.62323,0 -11.187836,1.54892 -17.142853,-1.428558c-7.455627,-3.727844 -5.766449,-9.791351 -4.285706,-15.714294c2.244232,-8.976959 -5.528763,-8.525055 -11.428574,-10c-7.581543,-1.895386 -12.723236,1.428589 -20,1.428589c-6.26915,0 -6.105942,9.354736 -8.571426,14.285706c-0.875778,1.751556 -11.948517,6.558563 -14.285706,7.142853c-4.382721,1.095673 -11.353653,-5.676819 -14.285721,-7.142853c-5.38147,-2.690735 -13.60788,-1.428589 -20,-1.428589c-4.7052,0 -12.436981,-5.96637 -17.142868,-7.142853c-8.536194,-2.134033 -13.561462,2.83725 -15.714279,7.142853c-3.764954,7.529907 -2.069183,9.606049 -8.571426,12.857147c-4.799232,2.399628 -17.050117,-0.691101 -20,-1.428558c-5.740349,-1.435089 -9.760872,-5.475159 -12.85714,-8.571442c-4.370628,-4.370605 -6.958252,-7.09671 -12.857147,-8.571411c-10.378937,-2.594757 -9.064125,0.83844 -7.321426,6.428558c9.52774,30.562561 27.188293,61.831146 43.214287,83.750031c2.285896,3.126404 33.099915,-2.216125 35.535721,-1.607178c6.508408,1.627136 12.907608,2.168091 20,5.714294c6.012009,3.006042 14.13179,3.494446 18.571411,5.714294c7.594757,3.797363 12.436996,7.752075 21.428589,10c7.592041,1.89801 12.657974,1.279175 18.571411,5.714294c3.933548,2.950134 16.938522,5.663208 22.857147,7.142822c7.126221,1.781555 14.16333,4.255127 20,5.714294c8.341339,2.085327 19.191132,10.309875 24.285706,12.857178c6.863159,3.43158 15.964478,5.478577 24.285736,7.142822c8.886871,1.777405 15.936371,4.285706 25.714264,4.285706c7.836853,0 18.106598,5.240967 25.714294,7.142883c2.771851,0.692932 2.020294,6.551086 0,8.571411c-1.362671,1.362671 14.724579,5.466858 15.714294,5.714294c6.969452,1.742371 14.55658,1.13916 21.428558,2.857178c6.229523,1.557312 14.96936,0 21.428589,0c7.142853,0 14.285706,0 21.428558,0c9.523804,0 19.047638,0 28.571442,0c8.626984,0 12.742889,-1.400024 18.571411,-2.857178c6.229523,-1.557373 11.308655,-0.089294 17.767883,-0.089294z"/>
    <path fill="url(#svg_3)" fill-rule="evenodd" stroke-width="1px" marker-start="none" marker-mid="none" marker-end="none" stroke-miterlimit="4" stroke-dashoffset="0" id="path2851" d="m649.285706,382.362183c3.497742,10.396606 3.639343,22.66098 -1.54364,32.51413c-4.173645,2.061462 -7.962585,3.511139 -6.555542,9.593872c-4.582153,6.967285 1.499573,13.678345 4.072021,20.040283c3.403137,4.599518 7.384521,18.390747 -2.806824,14.877167c-2.604065,-5.437347 -7.621094,-9.515106 -11.758545,-2.538055c-3.407104,7.693665 -1.903564,16.98761 6.177002,20.656128c3.839294,7.863861 -12.809998,5.259491 -9.013062,14.856476c2.255432,7.990417 -7.331848,15.377228 -12.695435,7.843658c-1.059265,-6.649811 -6.765198,-7.464661 -8.733093,-0.700806c-0.801208,12.20163 -11.666809,1.348511 -12.481689,-5.225586c-2.189087,-7.865051 -12.440857,-7.663422 -15.010925,-14.94577c-0.857056,-7.16333 -3.860596,-16.782166 -12.939331,-15.572845c-9.304077,3.914063 -4.209839,15.693298 0.847717,21.131531c4.141235,7.132721 10.172913,12.232849 16.853333,16.770203c4.136658,3.976929 16.064514,13.225555 8.730469,18.445831c-9.545532,-1.511719 -16.595337,-9.96048 -22.282166,-17.243073c-5.839478,-8.645569 -15.117432,-14.412811 -20.847473,-23.142273c-3.704224,-9.14682 1.052612,-17.844818 0.596008,-27.008453c-2.619019,-7.198303 1.737305,-15.852722 10.110413,-11.30957c5.356384,0.564972 11.241394,-7.619049 14.594421,1.208405c1.937317,7.12558 15.227295,11.979187 9.300598,19.534241c-5.842346,7.456757 3.181519,7.601196 8.24292,5.214508c6.556213,-0.45401 16.022522,2.180206 20.375977,-3.732208c-0.229675,-7.289215 1.958618,-15.455292 8.770569,-19.286621c5.16864,-4.63147 4.212219,-15.238037 -0.702942,-19.941162c-7.673889,-5.266907 -2.236511,-15.122467 -5.337891,-22.235657c-1.9776,-5.818024 10.733276,-12.5578 1.509583,-16.698456c-9.439087,3.388733 -8.464539,-10.469238 -14.683838,-10.837555c-3.914063,6.235748 -13.833679,2.994843 -15.645752,12.017365c-7.554382,5.013763 -18.45282,3.400085 -21.939392,-5.802979c-4.956726,-11.162354 -9.572021,4.212036 -6.552063,9.717896c3.741211,9.526794 -8.036011,8.409332 -12.224426,10.959534c0.330994,6.333588 -0.971558,13.881744 -9.26001,10.292847c-9.685303,-3.360809 -0.229431,-15.914978 -2.083435,-20.388397c-7.749268,-0.701385 -21.307373,0.814087 -21.882874,-10.088287c4.560303,-8.332886 15.103271,-8.962067 23.463379,-9.580627c3.120483,-3.678711 4.8927,-7.924255 10.227722,-5.194427c7.49762,-4.176392 6.990112,-12.560242 0.746948,-17.469269c-0.176941,-4.531921 -1.106201,-14.131226 1.810852,-15.862732c4.760559,1.307068 6.024536,14.813324 10.090149,10.832214c-2.212646,-6.296112 -2.36969,-17.661163 6.960449,-11.094177c0.945618,5.383148 -0.709534,16.884186 8.556274,12.554504c6.655212,-5.356232 19.616394,-3.11087 14.5849,7.334503c-5.656982,4.097656 -7.966858,18.859283 2.801758,16.013397c8.349487,0.702423 13.325378,-11.601013 22.152954,-7.459045c5.536072,7.115265 11.581665,14.413727 21.763,12.819244c5.133118,1.45343 8.976929,5.662689 13.64093,8.130096z"/>
    <path fill="url(#svg_3)" fill-rule="evenodd" stroke-width="1px" marker-start="none" marker-mid="none" marker-end="none" stroke-miterlimit="4" stroke-dashoffset="0" id="path4361" d="m238.571426,266.647888c9.192108,1.506531 17.735458,-3.88736 26.697525,-5.042938c12.042511,-1.556702 24.477814,0.682312 36.234619,-3.190582c7.356354,-1.479065 12.937103,-7.287567 20.427979,-8.447952c6.61142,-3.242783 14.136383,-2.381577 20.873444,-4.818146c6.621338,-3.648483 13.980286,-5.193954 21.220123,-7.082336c6.71582,-2.330887 13.128815,-5.607651 20.340942,-6.25c7.90387,-2.293976 16.555817,-1.660172 24.24176,0.686844c-5.900269,6.052917 -13.538788,9.889526 -20.508331,14.496185c-7.870117,6.046661 -12.656708,15.246002 -14.969421,24.74054c-2.58255,5.447906 -7.388275,10.487091 -13.333588,12.053589c-14.331146,3.028839 -29.234283,-0.189789 -43.542358,3.269012c-11.202789,1.711334 -22.578491,0.538483 -33.833282,1.502594c-7.833221,0.465698 -13.12146,-6.165924 -19.999176,-8.479279c-6.70459,-0.806793 -14.657059,-0.3255 -19.096039,-6.614502c-1.820694,-2.098694 -3.322662,-4.449097 -4.754196,-6.823029z"/>
    <path fill="url(#svg_3)" fill-rule="evenodd" stroke-width="1px" marker-start="none" marker-mid="none" marker-end="none" stroke-miterlimit="4" stroke-dashoffset="0" id="path2856" d="m437.142853,232.362183c2.83728,0 16.276215,1.569061 21.428589,2.857147c8.994232,2.24855 -9.501678,8.571426 -12.857147,8.571426c-6.577484,0 -13.320068,1.428574 -21.428589,1.428574c-8.550995,0 -12.653717,1.020569 -20,2.857147c-7.588287,1.897064 -13.990875,4.85257 -18.571411,7.142853c-7.236206,3.618103 -12.110474,6.055206 -17.142853,8.571411c-5.164459,2.582245 -8.118134,6.689545 -11.428589,10c-7.87146,7.87149 -0.053253,7.870483 2.857147,7.142883c5.804443,-1.451111 9.24353,-4.957825 12.857147,-8.571442c3.864044,-3.864044 10.265778,-5.132874 14.285706,-7.142853c6.27475,-3.13739 11.701874,-4.354034 17.142853,-5.714294c6.384338,-1.596069 10.415802,-2.603943 17.142853,-4.285706c5.990448,-1.49762 10.437408,-2.857147 18.571442,-2.857147c8.15686,0 11.506592,-0.675278 18.571442,2.857147c6.95343,3.476715 16.126709,0.968323 2.857117,4.285706c-7.356812,1.839203 -14.18158,0.662231 -18.571411,2.857147c-5.268311,2.634155 -0.120758,12.977875 -4.285706,17.142853c-5.482483,5.482483 -6.177582,7.142853 -15.714294,7.142853c-6.882843,0 -9.694519,-4.20932 -15.714294,-5.714264c-3.33905,-0.834778 -9.927704,7.106689 -12.857147,8.571411c-6.272827,3.136414 -9.866089,2.723236 -14.285706,7.142853c-3.427277,3.427277 -5.519073,11.038116 -7.142853,14.285736c-3.328186,6.656311 -5.905243,10.381897 -8.571442,15.714264c-2.810364,5.620789 -12.857147,4.362549 -12.857147,-2.857147c0,-7.097809 4.285736,-10.513428 4.285736,-18.571411c0,-6.456299 4.637512,-11.780365 -2.857147,-4.285706c-3.80954,3.809509 -1.904755,13.333313 -5.714294,17.142853c-5.259705,5.259674 -13.016815,-8.096649 -17.142853,-14.285736c-1.867767,-2.801636 -3.775665,7.142883 -7.142853,7.142883c-9.21637,0 -1.028748,-16.114105 -11.428589,-5.714294c-2.590759,2.590759 4.285736,12.631256 4.285736,17.142853c0,9.163849 -0.911072,10.942047 -8.571442,12.857147c-6.971588,1.742889 -8.093964,1.667297 -14.285706,-1.428589c-4.784637,-2.392303 -10.016113,-6.436615 -14.285706,-8.571411c-6.308594,-3.154297 -12.794739,-3.540222 -17.142883,-5.714294c-5.57692,-2.788452 -13.4048,-1.565491 -18.571411,-2.857147c-8.696121,-2.174011 -13.797745,0.940613 -18.571442,5.714294c-6.038788,6.038788 -5.944061,4.885101 1.428589,8.571442c8.638199,4.319092 1.649231,9.175354 -2.857147,11.428558c-6.532974,3.266479 -14.460419,4.329376 -20,5.714294c-6.229523,1.557373 -14.969345,0 -21.428574,0c-5.556076,0 -13.468033,6.734009 -17.142868,8.571411c-8.675659,4.33783 1.83197,11.83197 4.285721,14.285736c5.11821,5.118195 6.881165,5.190887 10,11.428558c2.313629,4.627258 0.454956,16.105499 1.428574,20c2.017075,8.068329 9.694534,8.778107 11.428574,15.714294c1.794693,7.178772 -11.756866,5.714264 -17.142868,5.714264c-5.579269,0 -12.583664,-9.726532 -14.285706,-11.428558c-3.571426,-3.571442 -5,-9.285706 -8.571426,-12.857147c-3.421005,-3.42099 -15.02774,-0.885925 -18.571426,0c-9.460968,2.365234 -9.908974,-5.350189 -11.428574,-11.428558c-1.176033,-4.704132 4.076157,-12.438049 5.714287,-15.714294c3.364494,-6.728973 4.637749,-12.877563 2.85714,-20c-2.22303,-8.89212 0.866455,-13.290375 5.714294,-15.714294c5.878662,-2.939331 12.905243,-2.166901 17.142853,-4.285706c6.908691,-3.454346 7.75708,-6.582123 15.714279,-8.571442c9.577103,-2.394257 13.502975,-2.583313 11.428574,5.714294c-1.450699,5.802795 -9.470612,10 2.857147,10c8.887695,0 10.161774,-2.857147 18.571426,-2.857147c5.763641,0 5.714279,-11.733826 5.714279,-12.857147c0,-5.573853 -7.142853,-5.448486 -7.142853,-14.285706c0,-5.008881 9.382736,-8.571411 14.285706,-8.571411c8.609695,0 10.535339,-2.321838 15.714294,2.857117c3.703094,3.703094 7.108276,11.290283 4.285706,0c-2.544601,-10.178406 3.588974,-9.825806 10,-11.428558c10.018066,-2.504517 4.162338,-6.397736 -4.285706,-4.285706c-11.348206,2.837036 -2.985306,-8.507355 0,-10c4.972794,-2.48642 17.143677,0 22.857147,0c6.190582,0 9.956238,4.27478 15.714294,5.714264c8.147034,2.036774 10.716125,-2.857117 18.571411,-2.857117c6.682587,0 9.388184,-5.91922 11.428589,-10c0.623138,-1.246338 18.306702,-2.433838 20,-2.857147c5.30722,-1.326813 9.963867,-5.678162 12.857117,-8.571442c2.899567,-2.899567 11.930939,-5.714279 17.142883,-5.714279c5.901154,0 10.469452,-5.83165 15.714264,-7.142853c4.296997,-1.074249 9.936371,-4.269806 15.714294,-5.714294c7.558044,-1.889511 10.99411,-5.605667 17.142853,-7.142853c6.838928,-1.709732 13.771301,-1.200043 18.571442,0c3.014404,0.753601 9.463745,-1.035614 11.428558,-1.428574z"/>
    <path fill="url(#svg_3)" fill-rule="evenodd" stroke-width="1px" marker-start="none" marker-mid="none" marker-end="none" stroke-miterlimit="4" stroke-dashoffset="0" id="path2858" d="m264.285706,375.21933c6.614441,1.653595 -13.181992,-4.285706 -20,-4.285706c-7.299438,0 -14.630508,0.086182 -20,1.428558c-8.238342,2.059601 -11.389313,6.985901 -12.857132,12.857147c-2.644836,10.579376 9.858627,3.606781 12.857132,2.857147c7.526291,-1.881592 10.197617,-5.406555 17.142868,-7.142853c6.945709,-1.73645 11.586792,3.650513 15.714279,5.714264c6.008057,3.004028 9.41394,4.432251 15.714294,2.857147c6.344177,-1.586029 10.686279,-3.042694 17.142853,-1.428558c6.161469,1.540375 15.939148,-0.413361 20,-1.428589c9.538605,-2.384644 -8.789642,-8.268829 -10,-8.571411c-9.250061,-2.312531 -10.078949,-1.057648 -15.714294,-8.571442c-1.817108,-2.422821 -10.916321,-6.886749 -14.285706,-8.571411c-6.923431,-3.461731 -11.283081,-6.851868 -7.142853,1.428558c3.819977,7.639954 6.659851,-0.221039 1.428558,12.857147z"/>
    <path fill="url(#svg_3)" fill-rule="evenodd" stroke-width="1px" marker-start="none" marker-mid="none" marker-end="none" stroke-miterlimit="4" stroke-dashoffset="0" id="path2860" d="m428.571442,488.076477c3.049103,6.098206 -13.385559,-5.939331 -20,-4.285736c-4.549927,1.137482 1.51947,10.759766 5.714264,12.857147c6.42688,3.21344 11.105957,4.838715 15.714294,7.142853c5.271759,2.635895 9.832092,4.916046 14.285706,7.142883c8.651337,4.325653 -0.777618,11.428558 -7.142853,11.428558c-4.466248,0 -2.851807,8.55011 -4.285706,14.285706c-1.860077,7.440308 -6.153595,7.142883 -14.285706,7.142883c-7.510681,0 -6.697693,-5.222595 -14.285736,-1.428589c-5.369629,2.684814 -8.002686,6.574158 -11.428558,10c-3.72049,3.72052 14.776367,4.285706 17.142853,4.285706c13.080048,0 26.170441,1.428589 37.142853,1.428589c9.621552,0 12.643799,0.213318 17.142853,-4.285706c7.64032,-7.64032 -7.459778,-10 -11.428558,-10c-6.399445,0 -10.26181,-6.761536 -11.428589,-11.428589c-1.005249,-4.021057 12.471893,-6.235962 14.285736,-7.142822c0.871002,-0.435547 -5.357513,-15.000763 -5.714294,-15.714325c-2.629211,-5.258392 -9.761505,-11.190094 -12.857147,-14.285706c-3.584625,-3.584625 -0.90271,-1.007874 -8.571411,-7.142853z"/>
    <path fill="url(#svg_3)" fill-rule="evenodd" stroke-width="1px" marker-start="none" marker-mid="none" marker-end="none" stroke-miterlimit="4" stroke-dashoffset="0" id="path2864" d="m65.714287,306.290771c5.535713,-32.142883 17.489357,-65.890213 28.571426,-86.071457c-1.77507,-8.038361 13.8936,6.036469 18.571426,10.714294c5.836182,5.836182 -3.07737,11.538696 -5.714279,12.857147c-5.691147,2.845581 13.021042,2.857147 15.714279,2.857147c8.095238,0 16.190483,0 24.285713,0c8.780502,0 16.520584,-1.428574 25.714294,-1.428574c7.021088,0 15.062286,-0.194153 20,-1.428574c6.603424,-1.650864 11.193573,-4.226959 17.142853,-5.714279c6.024826,-1.50621 11.483887,-4.299545 17.142853,-5.714294c8.475449,-2.118866 17.474472,-2.225769 25.714294,-4.285706c8.223328,-2.055832 18.765564,-2.548538 25.714294,-4.285721c6.981323,-1.745331 16.843384,-1.428574 22.857117,-1.428574c8.252136,0 -12.638916,9.384933 -15.714264,10c-11.663025,2.332596 -23.144531,3.486053 -34.285721,5.714294c-10.854782,2.170944 -18.034485,9.151459 -27.142868,11.428558c-9.409882,2.352478 -14.783051,6.19577 -24.285706,8.571442c-8.049652,2.01239 -17.238663,8.628906 -24.285706,12.857147c-7.093262,4.255951 -14.747421,6.175964 -20,11.428558c-4.700104,4.700104 -15.420135,4.212189 -21.428589,5.714294c-8.982376,2.245575 -17.182343,2.876892 -25.714279,7.142853c-7.774284,3.887146 -14.565636,4.425659 -20,7.142853c-5.465714,2.732849 -11.136055,2.784027 -17.142853,4.285706c-1.38591,0.346497 -4.285713,-0.357117 -5.714287,-0.357117z"/>
    <path fill="url(#svg_3)" fill-rule="evenodd" stroke-width="1px" id="path2866" d="m543.928589,107.71933c-22.537354,-15.874176 -53.612396,-31.105843 -68.750031,-36.071426c-5.137604,1.284393 -28.778717,9.657204 -36.607117,13.571419c-5.684753,2.842369 -16.984161,3.888901 -24.285736,5.714287c-9.915009,2.478752 -20.058533,3.725998 -30,5.714294c-9.951904,1.990379 -18.436432,3.687286 -28.571411,5.714279c-10.08902,2.017807 -20.88504,1.428566 -31.428589,1.428566c-10,0 -20,0 -30,0c-8.095215,0 -16.19046,0 -24.285706,0c-7.619049,0 -15.238098,0 -22.857147,0c-7.563858,0 -14.143005,0.035683 -20,-1.428566c-16.163147,-4.040779 -26.047623,-1.264145 -32.857147,3.571426c-30.184891,21.434898 -51.18132,43.145615 -64.821426,60.178574c-6.149086,6.704865 22.866684,6.25 31.964294,6.25c10.442886,0 20.676682,1.428574 31.428574,1.428574c9.373047,0 18.82489,-1.428574 28.571426,-1.428574c9.047623,0 18.09523,0 27.142853,0c14.832321,0 28.519669,-2.857147 42.857132,-2.857147c11.497162,0 22.522949,-2.857132 34.285736,-2.857132c8.65979,0 18.653198,-6.44902 27.142853,-8.571426c13.192871,-3.298233 24.567444,-6.856155 37.142853,-10c9.080078,-2.27002 19.59552,-4.285721 28.571442,-4.285721c9.428284,0 22.352478,-3.445267 31.428558,-5.714279c12.034729,-3.008682 26.30484,-3.866714 35.714294,-8.571442c6.476685,-3.238335 15.458771,-6.469223 24.285706,-9.999992c6.948975,-2.779602 12.21344,-2.339081 20,-4.285721c5.387146,-1.346771 10.751648,-5.911522 13.928589,-7.499992z"/>
    <path fill="url(#svg_3)" fill-rule="evenodd" stroke-width="1px" marker-start="none" marker-mid="none" marker-end="none" stroke-miterlimit="4" stroke-dashoffset="0" id="path2868" d="m234.285706,479.505035c-3.287903,5.814789 -1.083405,13.547455 2.857147,21.428589c3.255234,6.510437 6.252914,9.110046 11.428574,14.285736c4.442596,4.442566 105.877396,34.188843 110.000015,42.857117c3.553925,7.472595 -12.972107,5.714294 -17.142883,5.714294c-9.047607,0 -193.025146,-31.428589 -199.999985,-31.428589c-7.142868,0 -24.287117,1.67865 -21.25,5.714294c118.088242,156.911743 306.578384,144.657227 404.821426,82.678589c2.07843,-1.311279 -14.024078,-7.904907 -15,-8.392883c-5.434387,-2.717224 -7.616943,-9.519592 -10,-14.285706c-2.311646,-4.623291 -4.45108,-13.518616 -5.714294,-18.571411c-1.53595,-6.143799 -6.166718,-10.113159 -11.428558,-11.428589c-6.265137,-1.566284 -10.164703,-3.173096 -17.142853,-1.428589c-6.964081,1.741028 -10.554474,2.857178 -18.571442,2.857178c-4.822205,0 -13.111237,1.428528 -20,1.428528c-7.142853,0 -14.285706,0 -21.428558,0c-8.134277,0 -12.690369,-1.029724 -20,-2.857117c-5.992859,-1.49823 -10.775757,-4.673584 -15.714294,-7.142883c-7.868774,-3.934387 -5.483307,-5.057739 2.857147,-7.142822c7.353271,-1.838318 14.980499,1.061646 18.571411,2.857117c5.103699,2.55188 11.724213,2.931091 17.142883,4.285706c6.229492,1.557373 14.96933,0 21.428558,0c13.524475,0 -0.510742,-17.653564 -4.285706,-21.428528c-4.021027,-4.021057 -5.577393,-22.349304 -38.571442,-25.714294c-6.727325,-0.686157 -11.493866,-1.588257 -17.142853,-4.285736c-31.078857,-14.84079 -126.599884,-33.833984 -135.714294,-30z"/>
    <path fill="url(#svg_3)" fill-rule="evenodd" stroke-width="1px" marker-start="none" marker-mid="none" marker-end="none" stroke-miterlimit="4" stroke-dashoffset="0" id="path4357" d="m487.142853,149.505035c-17.022705,0.621979 -30.381653,13.144058 -45.893738,18.69751c-11.700134,3.937927 -23.938477,6.449371 -36.338409,5.588211c-16.921875,-0.153625 -33.889954,0.676224 -50.728455,-1.367203c-12.534698,-0.39566 -25.000031,-2.129761 -37.575104,-1.489944c-17.62851,0.703308 -36.399445,-2.734406 -52.755402,5.698257c-13.082962,4.370453 -27.037201,6.172379 -39.196136,13.10965c-5.782867,1.420609 -9.947342,8.305191 -0.737885,6.56897c6.33696,0.054825 16.631409,-1.235291 20.278732,3.709274c-4.300034,1.603302 -17.405731,4.356903 -6.228882,7.463257c15.11058,5.530884 31.203751,1.517456 46.79808,1.690689c15.069244,-1.057236 30.161652,-1.580521 45.234344,-2.525803c14.252045,0.545013 27.945496,-3.81813 41.904388,-5.642197c16.960144,-1.078568 35.309631,2.791077 50.791382,-6.233047c9.215912,-2.823242 17.077759,-8.284805 25.529755,-12.641129c11.763031,-5.045441 23.688629,-9.734177 35.293549,-15.122864c8.435364,-4.186386 13.703949,-11.168808 3.623779,-17.503632z"/>
    <path fill="url(#svg_3)" fill-rule="evenodd" stroke-width="1px" marker-start="none" marker-mid="none" marker-end="none" stroke-miterlimit="4" stroke-dashoffset="0" id="path4359" d="m656.428589,460.933624c27.737305,-76.969208 24.676819,-167.152771 -17.857178,-245.892868c-11.819641,0.009918 -39.929749,10.213547 -35.714294,28.75c-6.975708,1.059982 -14.125488,-16.46788 -21.55896,-2.857132c-9.82019,12.855621 -31.040833,1.944229 -15.615784,-10.259613c20.072998,-1.910385 2.278992,-49.443054 -5.682373,-19.740402c-0.596558,21.919296 -30.30603,9.959595 -34.393005,27.771103c-5.278381,20.187347 -35.106903,-8.393295 -33.763336,15.67276c-3.591705,15.977173 -28.010071,10.345398 -28.986511,29.413269c-16.878784,6.527557 -37.734375,-0.671356 -52.590759,9.724152c-12.458893,10.559357 -29.487091,18.089905 -30.540863,36.963043c-8.438721,10.897186 10.608765,28.703033 -12.78479,21.122253c-16.042694,-6.948364 -27.018677,-5.942444 -44.314636,-9.782318c-19.222534,10.014252 11.123077,17.300812 20.671021,16.823914c9.289215,4.248352 -7.429047,12.360352 -27.02948,7.846283c-6.920715,-1.640564 -33.165375,-22.442047 -24.839081,-5.554443c16.652802,12.667938 47.879486,16.265991 57.832611,23.892639c10.044678,14.167175 0.372437,-3.289063 -17.776825,6.156036c-12.706482,13.881866 5.629852,31.135376 18.22644,37.330933c14.282104,8.87793 21.422028,26.057068 38.355347,30.939178c14.090393,12.09787 34.130859,22.840057 49.076721,4.53833c20.183258,-9.651245 26.297638,19.962311 43.518402,24.689209c16.759491,3.369324 28.536285,16.713989 43.624451,23.882233c22.93103,7.624329 0.869751,27.278259 -13.533905,26.685242c-16.095825,2.741089 -31.628632,-6.368958 -45.843628,-12.797363c-17.999634,0.830627 -28.671356,-15.627594 -43.251129,-23.416504c-17.117371,-13.164673 4.550659,9.575012 9.539642,13.028748c12.147888,11.562744 32.403107,11.599426 39.884979,26.805481c9.23764,16.547119 30.464783,6.308044 45.026184,7.340698c12.692261,-9.875305 48.956848,8.164612 64.01532,19.194275c15.569153,-8.820129 18.835144,-37.347534 7.346863,-45.403687c-0.574646,-10.618408 -49.531128,-55.64624 -57.519592,-36.143005c-6.561218,16.988159 -22.450623,-6.905792 -17.983917,-15.535889c-15.026672,-2.959229 -18.114075,-14.592896 -6.984497,-25.023682c5.853363,-4.6521 7.947052,-25.054779 -0.69632,-9.02002c-5.178284,11.170776 -24.554077,10.463837 -10,-1.428589c6.957642,-6.53125 20.387451,-24.993835 19.906494,-5.861511c7.482544,0.755371 22.767639,-1.153717 15.108521,10.368408c7.614624,7.219757 27.744263,-10.338409 7.842163,-10.221161c-3.699341,-6.660522 7.548706,-21.932861 -9.9776,-18.204865c-7.521484,-2.982819 -9.849731,-15.015503 -17.024323,-1.76001c-4.466217,6.046997 -23.963226,16.355621 -22.952271,14.354218c10.406036,-1.622009 6.885559,-33.07132 15.108582,-22.474121c4.320404,24.135376 13.725616,-23.579376 0.559875,-20.486664c-16.68515,11.965454 -27.221283,-26.556732 -4.285706,-21.428558c1.708679,-14.079102 17.076385,-0.030518 24.285675,-12.857147c8.468994,0.478333 -1.955933,31.166138 10.996765,14.877594c8.535034,-11.74295 -0.406311,-21.667816 -0.996765,-34.877594c14.149048,-5.981812 13.21405,-22.121765 18.725342,-32.980652c-0.052124,9.796326 2.839966,28.668671 13.156372,11.682648c10.679199,-15.988373 11.874817,16.342072 10.070129,23.366882c5.985474,7.913239 21.200684,-3.122375 24.893433,11.398407c22.664063,9.69751 -3.918091,-19.774139 3.154724,-30.610138c3.642517,-13.914154 26.84137,-10.944977 20.017334,-29.778076c-6.457764,-17.760864 18.350159,-33.640869 28.554138,-17.364807c4.369507,14.438812 5.3125,32.569611 -2.563721,45.913788c-8.80365,15.112823 -18.36438,30.702911 -22.842285,47.712036c-0.470703,16.300476 31.365479,14.677399 26.741028,35.55603c-0.343628,15.700409 -13.689026,29.59903 -7.735229,46.628784c3.348694,7.660126 4.912903,15.801422 11.400208,21.332245z"/>
    <path fill="url(#svg_3)" fill-rule="evenodd" stroke-width="1px" marker-start="none" marker-mid="none" marker-end="none" stroke-miterlimit="4" stroke-dashoffset="0" id="path5910" d="m521.428589,499.505035c-9.777344,-7.420166 -18.927307,-15.639954 -28.050751,-23.816681c-3.756744,-9.076447 -13.556213,-11.665039 -19.232208,-19.126007c-6.412415,-7.357544 -16.870911,-7.592438 -25.275543,-11.324677c-8.269318,-1.542358 -16.669434,2.176758 -25.101471,0.200684c-9.833618,-0.341095 -20.54541,0.369324 -28.878876,-5.912384c-7.834686,-4.624054 -13.228729,-12.579834 -22.032593,-15.735229c-4.898163,-2.873627 -14.082367,-6.002258 -17.954773,-3.270355c9.356049,6.513977 21.065735,9.611786 28.886383,18.355896c8.059418,5.133148 12.875397,14.216583 21.593689,18.290924c9.019165,4.782501 20.725311,-0.922882 28.646484,6.534576c6.426514,4.301361 8.873108,13.826599 17.382965,14.699585c8.793335,1.417145 17.762543,1.494751 26.412384,3.835541c14.15271,1.121765 23.944763,12.832794 32.297363,23.042694c5.562073,6.838501 17.044067,5.670807 20.613647,14.5672c2.36615,8.528442 10.756592,11.377441 18.003235,14.764587c5.746826,5.067688 19.268921,4.893738 14.897766,-5.835693c-3.72583,-6.794861 -11.902344,-9.679321 -15.720642,-16.61731c-5.459961,-10.162201 -18.650818,-6.083862 -26.487061,-12.653351l0,0z"/>
    <path fill="url(#svg_3)" fill-rule="evenodd" stroke-width="1px" marker-start="none" marker-mid="none" marker-end="none" stroke-miterlimit="4" stroke-dashoffset="0" id="path4363" d="m188.571426,432.362183c-6.898438,0 -12.857132,-7.847168 -12.857132,7.142853c0,2.310425 11.585022,7.299316 12.857132,8.571442c3.694778,3.694763 11.26738,3.968872 15.714279,2.857147c5.407257,-1.351837 -1.773102,-11.773132 -5.714279,-15.714294c-2.48407,-2.48407 -6.44278,-2.145691 -10,-2.857147z"/>
    <path fill="url(#svg_3)" fill-rule="evenodd" stroke-width="1px" marker-start="none" marker-mid="none" marker-end="none" stroke-miterlimit="4" stroke-dashoffset="0" id="path4365" d="m224.285706,426.647888c-5.887268,-5.887268 -12.879059,2.944885 -14.285706,8.571442c-1.730087,6.920319 8.471756,7.142853 14.285706,7.142853c5.709518,0 9.292572,-4.285706 17.142868,-4.285706c9.088852,0 11.414581,1.414551 15.714279,5.714264c3.435303,3.435333 6.760071,11.045807 7.142853,11.428589c2.600433,2.600433 4.285736,-14.243164 4.285736,-17.142853c0,-6.231689 -5.692139,-9.274628 -10,-11.428589c-5.533737,-2.766846 -10.393265,-4.384033 -15.714294,-5.714264c-6.179092,-1.544769 -7.752243,-6.933075 -10,-11.428589c-2.832657,-5.665314 5.907944,-5.308716 -7.142853,-8.571411c-5.387482,-1.346893 -8.898239,-7.224579 -14.285721,-8.571442c-4.910828,-1.227722 6.420639,7.849213 10,11.428558c3.964233,3.964264 2.857132,15.183472 2.857132,22.857147z"/>
    <path fill="url(#svg_3)" fill-rule="evenodd" stroke-width="1px" marker-start="none" marker-mid="none" marker-end="none" stroke-miterlimit="4" stroke-dashoffset="0" id="path4390" d="m665.714294,429.505035c5.813293,-25.026947 9.160767,-50.74234 8.622192,-76.464844c-0.414673,-3.840515 0.208984,-9.668091 -1.25592,-12.254303c-1.16864,0.681183 -3.440125,0.532349 -1.11377,-0.454742c-2.983582,0.200928 -4.124207,7.116608 -6.451904,2.412201c-1.517395,-3.840027 -7.067932,-3.585846 -7.023682,0.982391c-0.207703,3.549957 1.805359,6.748932 -0.733704,9.878113c-1.991699,3.93161 1.644775,6.312317 3.479675,9.037537c1.608032,4.446075 -6.373718,6.274414 -2.623047,10.82193c2.476501,3.766785 7.926025,3.847778 10.477295,7.590607c1.820313,3.361633 -1.030762,6.981079 -0.577881,10.548523c0.683167,5.722992 -2.678894,11.160126 -1.53009,16.870911c-0.274048,4.960907 -6.544495,3.992279 -9.294861,6.652832c-2.996155,2.626953 -4.018066,8.17453 -1.100403,11.16037c2.932678,1.53067 6.285583,1.138092 9.126099,3.218475z"/>
    <path fill="url(#svg_3)" fill-rule="evenodd" stroke-width="1px" marker-start="none" marker-mid="none" marker-end="none" stroke-miterlimit="4" stroke-dashoffset="0" id="path6029" d="m609.39093,169.851654c-5.995544,-0.780197 -4.083435,6.718643 -11.973267,10.663528c-7.321716,3.660873 -10.883728,7.584732 -18.571411,11.428574c-7.649841,3.824921 -13.928345,10.535614 -21.428589,14.285721c-6.698914,3.349457 -11.863953,7.36055 -17.142822,10c-7.239258,3.619629 -10.546631,3.403732 -15.714294,8.571426c-4.347351,4.347351 -14.807495,7.630447 -18.571442,8.571426c-3.482178,0.870544 -8.204254,10.462845 -10,12.857147c-3.694794,4.926407 -6.099487,7.913269 -8.571411,12.857132c-2.642944,5.285858 -6.266144,8.246582 -8.571411,12.857147c-2.938599,5.877197 -8.195313,9.022614 1.428558,11.428589c6.229523,1.557373 14.96933,0 21.428558,0c4.285583,0 11.413483,-7.139099 17.142853,-8.571442c4.607361,-1.151825 10.548157,-4.42276 15.714294,-5.714294c6.514465,-1.628601 13.391968,-1.562256 18.571411,-2.857117c6.229553,-1.557404 14.96936,0 21.428589,0c7.142883,0 14.285706,0 21.428589,0c6.464661,0 10.994324,2.857117 18.571411,2.857117c7.142883,0 14.285706,0 21.428589,0c5.249695,0 14.495728,10.5513 16.615479,14.790802c3.015442,6.030914 4.857971,10.572296 8.571411,14.285706c3.749939,3.749939 9.104858,11.153503 8.571411,7.395386c-7.314026,-51.53154 -37.754333,-107.67511 -60.356506,-135.706848z"/>
    <path fill="url(#svg_3)" fill-rule="evenodd" stroke-width="1px" marker-start="none" marker-mid="none" marker-end="none" stroke-miterlimit="4" stroke-dashoffset="0" id="path4393" d="m481.428558,303.076477c7.232788,0.4375 15.044403,-1.395874 21.704895,2.267303c4.972961,1.568054 5.870148,7.706116 10.847626,9.457001c2.735779,1.809692 6.862,7.186096 0.733704,6.932373c-5.097626,1.252014 -7.164215,-4.254517 -9.769165,-7.382538c-4.866577,-3.864349 -10.805573,1.112396 -16.308899,0.152802c-4.467285,-0.386963 -10.409485,0.781281 -13.32373,-3.460907c-2.863953,-4.220123 0.772491,-10.539673 -4.007751,-13.67746c-7.847382,-4.087677 -16.905182,-2.075165 -25.354309,-2.104645c-4.448334,0.530823 -9.89621,-0.028778 -13.285828,3.422272c-2.650208,4.431274 -6.809265,7.397186 -11.781738,8.794891c-6.480499,2.634369 -10.316315,8.923462 -16.16687,12.53421c-3.1716,3.187164 -5.568359,6.742065 -10.228241,7.629395c-1.762329,2.201965 -0.471832,9.42337 -4.969879,5.318878c-4.659027,-2.535767 -6.508087,-7.656799 -5.947144,-12.736359c0.182861,-7.101318 8.855621,2.12207 10.683105,-2.801361c1.699677,-4.019989 -0.065948,-9.117157 2.660675,-12.637238c4.116394,-3.304321 8.077057,2.006195 11.30072,2.908051c2.239929,-5.714569 6.79541,-10.163605 8.927124,-16.045258c3.176208,-3.599243 8.607697,-1.590851 12.818268,-2.128815c4.191162,-4.628571 11.948212,-5.674469 15.643127,0.349091c3.864532,2.232788 8.880676,2.023712 13.03775,0.751495c3.106323,-3.774445 9.933411,-9.533386 13.530487,-3.193268c-1.029205,4.660858 -0.891541,9.368286 4.33252,11.512604c1.505402,1.541687 3.23526,2.806732 4.923553,4.137482z"/>
    <path fill="url(#svg_3)" fill-rule="evenodd" stroke-width="1px" marker-start="none" marker-mid="none" marker-end="none" stroke-miterlimit="4" stroke-dashoffset="0" id="path4395" d="m636.428589,226.647903c1.148071,1.148056 2.434509,6.005966 4.285706,7.857132c3.024902,3.024948 2.940247,3.488327 0.714294,5.714279c-1.989746,1.989716 -7.785583,0.375046 -9.285706,0c-4.027405,-1.006851 -5,-3.498947 -5,5.714294c0,2.057907 -4.025513,4.739761 -5,5.714294c-1.504883,1.504837 -4.048279,-6.907227 -4.285767,-7.857147c-1.161682,-4.646866 1.141785,-5.714279 5,-5.714279c4.9729,0 6.428589,0.999741 6.428589,-4.285721c0,-5.334793 1.682251,-6.050735 7.142883,-7.142853z"/>
    <path fill="url(#svg_3)" fill-rule="evenodd" stroke-width="1px" marker-start="none" marker-mid="none" marker-end="none" stroke-miterlimit="4" stroke-dashoffset="0" id="path4397" d="m485.081085,464.698425c0,-3.744476 -1.362885,9.377625 2.044342,11.052216c3.823151,1.878998 3.066498,7.394867 3.066498,12.056946c0,5.473846 2.919373,6.99707 7.155151,8.037994c5.983826,1.470459 7.899414,-2.741028 10.221649,-5.023743c3.864349,-3.798462 -5.079651,-9.027405 -7.155151,-10.047485c-4.387939,-2.156586 -6.28775,-3.31842 -8.177307,-7.033234c-2.312683,-4.546478 -1.767731,-5.865326 -7.155182,-9.042694z"/>
    <path fill="url(#svg_3)" fill-rule="evenodd" stroke-width="1px" marker-start="none" marker-mid="none" marker-end="none" stroke-miterlimit="4" stroke-dashoffset="0" id="path4399" d="m347.163483,403.145782c-2.210876,-4.431671 6.231049,-7.789642 8.441895,-12.221344c3.183472,-6.381226 -4.176849,-6.239197 -6.565918,-5.640594c-3.88269,0.972839 -5.966583,2.98999 -9.379913,4.7005c-2.097046,1.050873 -5.85733,4.345398 -8.441925,5.640594c-4.282349,2.146027 -0.865051,8.607117 0,10.341156c2.527649,5.066681 -1.518036,0.494873 0,6.580688c0.123322,0.494446 8.03833,4.831604 9.379913,7.520813c3.001678,6.016876 -2.239532,7.338654 3.751953,10.341125c3.75296,1.880707 5.402649,-3.760406 10.317902,-3.760406c3.571381,0 5.669586,4.475922 10.317902,5.640625c5.672455,1.421295 8.085785,-2.463379 10.317902,-4.700531c3.787537,-3.796082 0.338104,-6.843079 -0.937988,-9.401001c-0.463348,-0.928741 -8.852539,-4.906281 -10.317902,-5.640625c-1.149506,-0.57605 -4.664154,5.869171 -7.503937,6.580719c-1.223663,0.30661 -4.350433,-8.720459 -4.689941,-9.401031c-0.860382,-1.72464 -4.091248,-5.580597 -4.689941,-6.580688z"/>
    <path fill="url(#svg_3)" fill-rule="evenodd" stroke-width="1px" marker-start="none" marker-mid="none" marker-end="none" stroke-miterlimit="4" stroke-dashoffset="0" id="path4401" d="m398.109222,430.242615c-0.801636,-7.245575 -15.009338,-14.569641 -11.975586,-2.195862c-0.467834,9.116516 -15.779205,2.419312 -13.346985,13.553772c0.907166,12.923981 15.169037,10.021484 23.969604,11.988251c10.42691,2.256653 11.089203,13.860016 15.583496,21.265778c8.69165,4.038635 14.932526,-8.537354 21.098969,-13.342316c8.166901,-2.86499 10.182587,-18.423553 -1.585388,-12.735443c-8.719421,3.441345 -15.702698,-5.668701 -5.472656,-9.758942c-1.786011,-4.606018 -11.290924,-0.475525 -14.088654,-7.024719c-3.947845,-4.029877 -9.43219,-0.712128 -14.1828,-1.750519z"/>
    <path fill="url(#svg_3)" fill-rule="evenodd" stroke-width="1px" marker-start="none" marker-mid="none" marker-end="none" stroke-miterlimit="4" stroke-dashoffset="0" id="path4403" d="m529.285706,250.933609c-0.505981,-8.350037 15.411499,-11.386505 19.664856,-4.233673c2.283264,9.335159 7.872681,17.548508 9.622314,26.687424c2.250122,11.381531 -13.119019,6.703247 -16.429993,0.403381c-5.141846,-5.8573 -11.961975,-6.841797 -17.738037,-1.853851c-5.352173,-1.072266 -14.667267,3.696228 -10.1203,8.59375c8.496887,-0.523407 16.364136,4.37561 17.692383,13.113495c-0.489685,6.885742 -13.7146,10.117981 -18.586121,4.127625c-9.688873,-1.501526 -2.891602,-15.621033 -12.676514,-18.266724c-5.945251,-5.796814 -0.331299,-14.28244 7.531677,-12.533691c5.851563,-5.202454 16.812439,-2.320221 18.96051,-11.447067c0.618835,-1.561127 1.212952,-3.143829 2.079224,-4.590668z"/>
    <path fill="url(#svg_3)" fill-rule="evenodd" stroke-width="1px" marker-start="none" marker-mid="none" marker-end="none" stroke-miterlimit="4" stroke-dashoffset="0" id="path4405" d="m447.857147,335.933624c-3.910858,-3.827454 -13.072693,-7.96582 -15,0.714264c-0.651367,5.731537 10.784485,0.6203 7.686523,8.520813c-0.876495,6.751282 0.274414,13.095703 8.321655,10.11618c4.872589,6.568298 -0.815521,17.155426 8.277527,21.363007c0.213867,8.706207 6.856201,12.413544 12.687836,17.687836c6.99649,4.484772 1.444427,18.207092 -6.973541,15.883606c-5.853058,-2.540833 -18.156036,-0.35849 -17.870422,-8.812317c0.01062,-5.346527 1.458008,-18.275879 -6.611176,-15.805756c-8.009064,7.318085 4.635986,16.069092 -1.392548,23.216217c-5.970551,7.002411 6.64328,13.503448 5.353516,21.227142c-4.154663,6.421722 0.493317,12.688507 7.808746,9.703369c6.116913,-0.343506 7.077484,-8.710175 10.333069,-9.771057c7.926392,6.417572 3.64682,-12.438995 12.742981,-11.251801c6.514313,-3.670593 1.53894,-14.974396 9.734436,-18.752136c4.923401,-5.69339 4.229889,-15.925018 -2.699982,-19.731873c-6.477966,-3.313568 -7.358093,-12.631012 -14.719147,-13.355164c-9.65741,-2.140259 -7.255615,-15.602478 -16.250916,-18.809479c-4.248779,-3.758087 2.75589,-8.239929 -1.428558,-12.142853z"/>
    <path fill="url(#svg_3)" fill-rule="evenodd" stroke-width="1px" marker-start="none" marker-mid="none" marker-end="none" stroke-miterlimit="4" stroke-dashoffset="0" id="path4407" d="m538.571411,326.647888c-8.291565,-1.524658 -16.661011,2.703552 -19.369507,10.881897c-2.661133,7.467865 -12.770569,9.22818 -13.770386,17.570709c-3.494965,6.803894 8.1297,17.651642 11.700256,9.143616c0.842957,-7.239624 2.247925,-14.725861 7.153931,-20.453369c5.26355,-4.579865 17.085083,0.948944 19.112,-7.903107c0.739685,-4.373566 0.420959,-8.197174 -4.826294,-9.239746z"/>
    <path fill="url(#svg_3)" fill-rule="evenodd" stroke-width="1px" marker-start="none" marker-mid="none" marker-end="none" stroke-miterlimit="4" stroke-dashoffset="0" id="path5904" d="m250,519.505066c16.210815,7.86499 32.285004,16.954956 50.065125,20.707214c7.935516,1.237305 15.951935,2.487427 23.417511,5.513611c8.442688,0.962952 16.702148,2.654358 24.733063,5.393127c14.822418,2.670898 29.95871,0.534058 44.916016,1.188782c20.297913,0.16687 40.628296,0.49292 60.849609,-1.556274c5.320313,0.934021 16.145142,-3.502014 18.608368,-0.030334c-11.724579,4.018066 -24.276733,5.105591 -36.479248,6.588135c-9.97403,0.078125 -19.855743,1.917908 -29.842743,1.482483c-9.184052,0.995605 -18.313263,3.001709 -27.60437,2.103516c-20.37207,-0.076294 -41.606964,2.168396 -61.002075,-5.543091c-6.590851,-4.826294 -13.529388,-9.125671 -21.16626,-12.030823c-9.372681,-4.431519 -19.752228,-6.052063 -29.27359,-10.093445c-10.286133,-0.857056 -14.304199,-15.441284 -25.792831,-12.294373"/>
    <path fill="url(#svg_3)" fill-rule="evenodd" stroke-width="1px" marker-start="none" marker-mid="none" marker-end="none" stroke-miterlimit="4" stroke-dashoffset="0" id="path6010" d="m580,395.21933c6.151489,-1.537872 9.935364,-4.027222 11.428589,-10c1.807617,-7.230438 9.587952,-4.49173 12.857117,-2.857147c5.883667,2.941833 5.567383,9.159088 4.285706,14.285706c-1.884094,7.536438 -3.926697,8.93042 1.428589,14.285736c4.12085,4.120819 5.714294,11.016663 5.714294,17.142853c0,4.738342 -6.858765,9.431824 -8.571411,12.857147c-3.245667,6.491272 -5.301819,8.571411 -14.285767,8.571411c-5.243164,0 -9.996643,-5.710938 -12.857117,-8.571411c-3.864014,-3.864044 -10.265747,-5.132904 -14.285706,-7.142883c-7.468018,-3.733978 -9.457825,-1.772766 -12.857178,-8.571411c-1.911743,-3.823547 5.16449,-8.900391 7.142883,-12.857147c3.112183,-6.224335 13.770264,-15.585419 20,-17.142853z"/>
    <path fill="url(#svg_3)" fill-rule="evenodd" stroke-width="1px" marker-start="none" marker-mid="none" marker-end="none" stroke-miterlimit="4" stroke-dashoffset="0" id="path6014" d="m621.428589,232.362183c-10.491394,6.695755 -14.441223,19.006821 -21.36853,28.715027c-2.208252,6.734833 -8.731628,10.819794 -15.774353,9.856415c-8.140381,-0.582031 -14.214539,5.537109 -21.189697,8.60022c-5.276367,5.66803 -9.782654,11.973328 -18.674744,11.853302c-6.80365,0.223206 -11.331421,5.354614 -16.406006,9.071045c-6.835693,1.543121 -16.084229,5.330353 -11.368469,14.201874c6.12439,0.600189 13.04541,-2.881744 17.890259,-6.902161c7.155212,-6.793365 17.307068,-8.644745 26.830505,-8.464417c7.175354,-0.270081 11.49469,-10.067963 19.04895,-6.838104c5.870605,3.353851 15.674316,8.99234 11.949219,17.156952c-2.97699,4.306732 -9.226013,16.295135 1.421875,12.66629c8.203979,-1.599884 9.122314,-11.245026 9.104614,-18.058716c1.368591,-6.915833 3.139771,-14.090332 0.143921,-20.911835c-2.58197,-8.4039 4.08374,-15.580536 7.996582,-22.354034c3.820923,-5.957733 8.774475,-11.031906 13.420593,-16.309937c2.847717,-4.138428 -1.188171,-8.684998 -3.024719,-12.281921z"/>
   </g>
   <path fill="url(#svg_3)" fill-rule="evenodd" stroke-width="1.988371" marker-start="none" marker-mid="none" marker-end="none" stroke-miterlimit="4" stroke-dashoffset="0" id="path7041" d="m674.278687,358.076294a306.421509,305.709442 0 1 1 -612.843002,0a306.421509,305.709442 0 1 1 612.843002,0z"/>
  </g>
  <ellipse ry="83" rx="87" id="svg_1" cy="212.433044" cx="449.299194" stroke-width="2" stroke="#000000" fill="url(#svg_2)"/>
  <line opacity="0.75" id="svg_4" y2="362.433044" x2="673.299194" y1="367.433044" x1="62.299199" stroke-width="7" stroke="#000000" fill="none"/>
 </g>
</svg>