<?xml version="1.0"?><svg width="600" height="600" xmlns="http://www.w3.org/2000/svg" xmlns:xlink="http://www.w3.org/1999/xlink">
 <metadata>VenusThe Cloud-Covered Planet VenusastronomyplanetvenusspaceOpen Clip Art LibraryDan GerhardsDan GerhardsSeptember 2005image/svg+xmlen</metadata>
 <defs>
  <linearGradient id="linearGradient7777">
   <stop stop-color="#ffffff" stop-opacity="0.463918" offset="0" id="stop7779"/>
   <stop stop-color="#91918f" stop-opacity="0" offset="0.5" id="stop7783"/>
   <stop stop-color="#5a5a57" stop-opacity="0.195876" offset="0.689719" id="stop7785"/>
   <stop stop-color="#3f3e3b" stop-opacity="0.453608" offset="0.865385" id="stop7787"/>
   <stop stop-color="#171715" stop-opacity="0.742268" offset="1" id="stop7781"/>
  </linearGradient>
  <linearGradient id="linearGradient6023">
   <stop stop-color="#dfba49" offset="0" id="stop6025"/>
   <stop stop-color="#e4c873" stop-opacity="0.653061" offset="1" id="stop6027"/>
  </linearGradient>
  <linearGradient id="linearGradient5931">
   <stop stop-color="#daa02f" stop-opacity="0.447059" offset="0" id="stop5933"/>
   <stop stop-color="#bc9624" stop-opacity="0.295918" offset="1" id="stop5935"/>
  </linearGradient>
  <linearGradient id="linearGradient5914">
   <stop stop-color="#d9ab26" offset="0" id="stop5916"/>
   <stop stop-color="#d2a028" stop-opacity="0.654902" offset="1" id="stop5918"/>
  </linearGradient>
  <linearGradient id="linearGradient4436">
   <stop stop-color="#cc9223" stop-opacity="0.776471" offset="0" id="stop4438"/>
   <stop stop-color="#c29e33" stop-opacity="0.529412" offset="1" id="stop4440"/>
  </linearGradient>
  <linearGradient id="linearGradient4418">
   <stop stop-color="#e2c05b" offset="0" id="stop4420"/>
   <stop stop-color="#e4c873" stop-opacity="0.653061" offset="1" id="stop4422"/>
  </linearGradient>
  <linearGradient id="linearGradient4347">
   <stop stop-color="#f7eed4" offset="0" id="stop4349"/>
   <stop stop-color="#f8f1dc" stop-opacity="0" offset="1" id="stop4351"/>
  </linearGradient>
  <linearGradient id="linearGradient4322">
   <stop stop-color="#ffffff" offset="0" id="stop4324"/>
   <stop stop-color="#f8f1dc" stop-opacity="0" offset="1" id="stop4326"/>
  </linearGradient>
  <radialGradient xlink:href="#linearGradient4322" r="207.65597" id="radialGradient4331" gradientUnits="userSpaceOnUse" gradientTransform="matrix(0.321661,0.602103,-0.516262,0.275802,958.7179,-281.8280)" fy="1112.5737" fx="566.5874" cy="1112.5737" cx="566.5874"/>
  <radialGradient xlink:href="#linearGradient4322" r="207.65597" id="radialGradient4333" gradientUnits="userSpaceOnUse" gradientTransform="matrix(1.505209,-0.323589,5.287274e-2,0.245942,-176.3762,201.3517)" fy="122.71932" fx="336.27261" cy="122.71932" cx="336.27261"/>
  <radialGradient xlink:href="#linearGradient4322" r="207.65597" id="radialGradient4339" gradientUnits="userSpaceOnUse" gradientTransform="matrix(1.310467,-0.288056,0.159009,0.723390,-223.1215,-199.4319)" fy="801.80664" fx="307.26144" cy="801.80664" cx="307.26144"/>
  <radialGradient xlink:href="#linearGradient4322" r="207.65597" id="radialGradient4341" gradientUnits="userSpaceOnUse" gradientTransform="matrix(0.244022,3.268460e-2,-1.365773e-2,0.101968,222.7710,253.0544)" fy="1176.9749" fx="273.41547" cy="1176.9749" cx="273.41547"/>
  <radialGradient xlink:href="#linearGradient4322" r="207.65597" id="radialGradient4343" gradientUnits="userSpaceOnUse" gradientTransform="matrix(1.767119,0.380124,-0.143843,0.668695,85.96779,-671.5904)" fy="1632.9476" fx="194.12976" cy="1632.9476" cx="194.12976"/>
  <radialGradient xlink:href="#linearGradient4347" r="207.65597" id="radialGradient4345" gradientUnits="userSpaceOnUse" gradientTransform="matrix(1.008901,0.278994,-6.590188e-2,0.238314,124.8449,31.64674)" fy="1995.5389" fx="260.61557" cy="1995.5389" cx="260.61557"/>
  <radialGradient xlink:href="#linearGradient4347" r="207.65597" id="radialGradient4353" gradientUnits="userSpaceOnUse" gradientTransform="matrix(0.839444,-0.254133,7.350131e-2,0.242787,-37.73429,-80.89279)" fy="1501.6678" fx="48.570953" cy="1501.6678" cx="48.570953"/>
  <radialGradient xlink:href="#linearGradient4347" r="207.65597" id="radialGradient4355" gradientUnits="userSpaceOnUse" gradientTransform="matrix(0.438649,4.097118e-2,-3.858412e-2,0.413089,324.5856,-225.2632)" fy="1807.3854" fx="418.47516" cy="1807.3854" cx="418.47516"/>
  <radialGradient xlink:href="#linearGradient4347" r="207.65597" id="radialGradient4412" gradientUnits="userSpaceOnUse" gradientTransform="matrix(0.299159,-5.584989e-2,2.367693e-2,0.126825,365.4732,128.1100)" fy="1287.8252" fx="423.63354" cy="1287.8252" cx="423.63354"/>
  <radialGradient xlink:href="#linearGradient4347" r="207.65597" id="radialGradient4414" gradientUnits="userSpaceOnUse" gradientTransform="matrix(0.154171,1.542934e-2,-5.388742e-2,0.538446,476.8363,-444.9566)" fy="1548.5298" fx="393.96121" cy="1548.5298" cx="393.96121"/>
  <radialGradient xlink:href="#linearGradient4347" r="207.65597" id="radialGradient4416" gradientUnits="userSpaceOnUse" gradientTransform="matrix(3.094837e-2,3.314703e-2,-0.151999,0.141917,713.9893,115.7276)" fy="1448.4443" fx="771.3219" cy="1448.4443" cx="771.3219"/>
  <radialGradient xlink:href="#linearGradient6023" r="207.65597" id="radialGradient4424" gradientUnits="userSpaceOnUse" gradientTransform="matrix(0.843856,0.652145,-0.939011,1.215055,1574.388,-1731.229)" fy="1533.6655" fx="374.82452" cy="1533.6655" cx="374.82452"/>
  <radialGradient xlink:href="#linearGradient4418" r="207.65597" id="radialGradient4426" gradientUnits="userSpaceOnUse" gradientTransform="matrix(1.092406e-2,0.124507,-0.749642,6.577231e-2,1401.774,79.75977)" fy="1406.5156" fx="158.98811" cy="1406.5156" cx="158.98811"/>
  <radialGradient xlink:href="#linearGradient4418" r="207.65597" id="radialGradient4428" gradientUnits="userSpaceOnUse" gradientTransform="matrix(2.381204e-2,0.122696,-0.722124,0.140145,1353.179,-26.71438)" fy="1448.1531" fx="678.49969" cy="1448.1531" cx="678.49969"/>
  <radialGradient xlink:href="#linearGradient4418" r="207.65597" id="radialGradient4430" gradientUnits="userSpaceOnUse" gradientTransform="matrix(0.122801,2.326305e-2,-2.093068e-2,0.110489,26.20736,208.2349)" fy="1585.348" fx="1969.1726" cy="1585.348" cx="1969.1726"/>
  <radialGradient xlink:href="#linearGradient4418" r="207.65597" id="radialGradient4432" gradientUnits="userSpaceOnUse" gradientTransform="matrix(0.122801,2.326305e-2,-2.093068e-2,0.110489,26.20736,208.2349)" fy="1760.1962" fx="1641.7333" cy="1760.1962" cx="1641.7333"/>
  <radialGradient xlink:href="#linearGradient4436" r="207.65597" id="radialGradient4434" gradientUnits="userSpaceOnUse" gradientTransform="matrix(0.122801,2.326305e-2,-2.093068e-2,0.110489,26.20736,208.2349)" fy="1456.2902" fx="3351.6338" cy="1456.2902" cx="3351.6338"/>
  <radialGradient xlink:href="#linearGradient4436" r="207.65597" id="radialGradient4442" gradientUnits="userSpaceOnUse" gradientTransform="matrix(0.122801,2.326305e-2,-2.093068e-2,0.110489,26.20736,208.2349)" fy="1289.2784" fx="2793.856" cy="1289.2784" cx="2793.856"/>
  <radialGradient xlink:href="#linearGradient4436" r="207.65597" id="radialGradient4444" gradientUnits="userSpaceOnUse" gradientTransform="matrix(0.397726,-9.336652e-2,1.165638e-2,4.965408e-2,-906.3300,607.2522)" fy="72.615036" fx="3383.3589" cy="72.615036" cx="3383.3589"/>
  <radialGradient xlink:href="#linearGradient4436" r="207.65597" id="radialGradient4446" gradientUnits="userSpaceOnUse" gradientTransform="matrix(0.153759,-6.062851e-2,4.125068e-2,0.104615,-76.90753,606.2165)" fy="-728.98163" fx="4795.043" cy="-728.98163" cx="4795.043"/>
  <radialGradient xlink:href="#linearGradient4436" r="207.65597" id="radialGradient4448" gradientUnits="userSpaceOnUse" gradientTransform="matrix(0.105022,1.451579e-2,-1.036425e-2,7.245137e-2,78.67695,305.2352)" fy="1670.6855" fx="4144.9312" cy="1670.6855" cx="4144.9312"/>
  <radialGradient xlink:href="#linearGradient4436" r="207.65597" id="radialGradient4450" gradientUnits="userSpaceOnUse" gradientTransform="matrix(1.306962e-2,-0.351766,9.258122e-2,3.439745e-3,550.9936,2241.009)" fy="484.8938" fx="5263.6245" cy="484.8938" cx="5263.6245"/>
  <radialGradient xlink:href="#linearGradient4418" r="207.65597" id="radialGradient5906" gradientUnits="userSpaceOnUse" gradientTransform="matrix(-1.174024e-2,0.124536,-0.934797,-8.812592e-2,1779.079,309.6059)" fy="1497.6819" fx="3020.4219" cy="1497.6819" cx="3020.4219"/>
  <radialGradient xlink:href="#linearGradient5931" r="207.65597" id="radialGradient5929" gradientUnits="userSpaceOnUse" gradientTransform="matrix(0.642014,0.223057,-3.392673e-2,9.764972e-2,-1574.569,-591.2604)" fy="3110.4795" fx="3315.8777" cy="3110.4795" cx="3315.8777"/>
  <radialGradient xlink:href="#linearGradient5931" r="207.65597" id="radialGradient5938" gradientUnits="userSpaceOnUse" gradientTransform="matrix(0.642014,0.223057,-3.392673e-2,9.764972e-2,-1574.569,-591.2604)" fy="3110.4795" fx="3315.8777" cy="3110.4795" cx="3315.8777"/>
  <radialGradient xlink:href="#linearGradient4436" r="207.65597" id="radialGradient5940" gradientUnits="userSpaceOnUse" gradientTransform="matrix(0.397726,-9.336652e-2,1.165638e-2,4.965408e-2,-906.3300,607.2522)" fy="72.615036" fx="3383.3589" cy="72.615036" cx="3383.3589"/>
  <radialGradient xlink:href="#linearGradient4436" r="207.65597" id="radialGradient5943" gradientUnits="userSpaceOnUse" gradientTransform="matrix(0.397726,-9.336652e-2,1.165638e-2,4.965408e-2,-906.3300,607.2522)" fy="72.615036" fx="3383.3589" cy="72.615036" cx="3383.3589"/>
  <radialGradient xlink:href="#linearGradient4436" r="207.65597" id="radialGradient5950" gradientUnits="userSpaceOnUse" gradientTransform="matrix(0.122801,2.326305e-2,-2.093068e-2,0.110489,26.20736,208.2349)" fy="1456.2902" fx="3351.6338" cy="1456.2902" cx="3351.6338"/>
  <radialGradient xlink:href="#linearGradient4436" r="207.65597" id="radialGradient5953" gradientUnits="userSpaceOnUse" gradientTransform="matrix(0.122801,2.326305e-2,-2.093068e-2,0.110489,26.20736,208.2349)" fy="1456.2902" fx="3351.6338" cy="1456.2902" cx="3351.6338"/>
  <radialGradient xlink:href="#linearGradient4436" r="207.65597" id="radialGradient5956" gradientUnits="userSpaceOnUse" gradientTransform="matrix(0.122801,2.326305e-2,-2.093068e-2,0.110489,26.20736,208.2349)" fy="1456.2902" fx="3351.6338" cy="1456.2902" cx="3351.6338"/>
  <radialGradient xlink:href="#linearGradient4436" r="207.65597" id="radialGradient5959" gradientUnits="userSpaceOnUse" gradientTransform="matrix(0.122801,2.326305e-2,-2.093068e-2,0.110489,26.20736,208.2349)" fy="1456.2902" fx="3351.6338" cy="1456.2902" cx="3351.6338"/>
  <radialGradient xlink:href="#linearGradient4436" r="207.65597" id="radialGradient5962" gradientUnits="userSpaceOnUse" gradientTransform="matrix(0.122801,2.326305e-2,-2.093068e-2,0.110489,26.20736,208.2349)" fy="1456.2902" fx="3351.6338" cy="1456.2902" cx="3351.6338"/>
  <radialGradient xlink:href="#linearGradient4436" r="207.65597" id="radialGradient5965" gradientUnits="userSpaceOnUse" gradientTransform="matrix(0.122801,2.326305e-2,-2.093068e-2,0.110489,26.20736,208.2349)" fy="1456.2902" fx="3351.6338" cy="1456.2902" cx="3351.6338"/>
  <radialGradient xlink:href="#linearGradient4436" r="207.65597" id="radialGradient5968" gradientUnits="userSpaceOnUse" gradientTransform="matrix(0.122801,2.326305e-2,-2.093068e-2,0.110489,26.20736,208.2349)" fy="1456.2902" fx="3351.6338" cy="1456.2902" cx="3351.6338"/>
  <radialGradient xlink:href="#linearGradient4436" r="207.65597" id="radialGradient5971" gradientUnits="userSpaceOnUse" gradientTransform="matrix(0.122801,2.326305e-2,-2.093068e-2,0.110489,26.20736,208.2349)" fy="1456.2902" fx="3351.6338" cy="1456.2902" cx="3351.6338"/>
  <radialGradient xlink:href="#linearGradient4436" r="207.65597" id="radialGradient6002" gradientUnits="userSpaceOnUse" gradientTransform="matrix(1.306962e-2,-0.351766,9.258122e-2,3.439745e-3,550.9936,2241.009)" fy="484.8938" fx="5263.6245" cy="484.8938" cx="5263.6245"/>
  <radialGradient xlink:href="#linearGradient4418" r="207.65597" id="radialGradient6005" gradientUnits="userSpaceOnUse" gradientTransform="matrix(-1.174024e-2,0.124536,-0.934797,-8.812592e-2,1779.079,309.6059)" fy="1497.6819" fx="3020.4219" cy="1497.6819" cx="3020.4219"/>
  <radialGradient xlink:href="#linearGradient4418" r="207.65597" id="radialGradient6008" gradientUnits="userSpaceOnUse" gradientTransform="matrix(-1.174024e-2,0.124536,-0.934797,-8.812592e-2,1779.079,309.6059)" fy="1497.6819" fx="3020.4219" cy="1497.6819" cx="3020.4219"/>
  <radialGradient xlink:href="#linearGradient4418" r="207.65597" id="radialGradient6012" gradientUnits="userSpaceOnUse" gradientTransform="matrix(0.126472,5.570594e-2,-9.438445e-2,0.214285,665.9857,70.58062)" fy="1501.5052" fx="501.55704" cy="1501.5052" cx="501.55704"/>
  <radialGradient xlink:href="#linearGradient5931" r="207.65597" id="radialGradient6017" gradientUnits="userSpaceOnUse" gradientTransform="matrix(0.349515,-0.198720,7.381132e-2,0.129821,-698.7382,817.3251)" fy="1146.8718" fx="3420.9866" cy="1146.8718" cx="3420.9866"/>
  <radialGradient xlink:href="#linearGradient4436" r="207.65597" id="radialGradient6019" gradientUnits="userSpaceOnUse" gradientTransform="matrix(0.171072,-8.921504e-3,8.027016e-3,0.153920,-177.6446,252.5097)" fy="1456.2902" fx="3351.6338" cy="1456.2902" cx="3351.6338"/>
  <radialGradient xlink:href="#linearGradient4436" r="207.65597" id="radialGradient6021" gradientUnits="userSpaceOnUse" gradientTransform="matrix(0.161261,3.061749e-2,-2.748589e-2,0.145419,-72.40881,142.9461)" fy="1289.2784" fx="2793.856" cy="1289.2784" cx="2793.856"/>
  <radialGradient xlink:href="#linearGradient4418" r="207.65597" id="radialGradient6031" gradientUnits="userSpaceOnUse" gradientTransform="matrix(-0.106271,-0.194771,0.544932,-0.297324,122.6551,642.4028)" fy="1049.411" fx="565.63556" cy="1049.411" cx="565.63556"/>
  <radialGradient xlink:href="#linearGradient7777" r="304.28571" id="radialGradient7775" gradientUnits="userSpaceOnUse" fy="359.50504" fx="365.71429" cy="359.50504" cx="365.71429"/>
 </defs>
 <g>
  <title>Layer 1</title>
  <g externalResourcesRequired="false" id="layer1">
   <path fill="#e8d794" fill-rule="evenodd" stroke-width="1.988371" marker-start="none" marker-mid="none" marker-end="none" stroke-miterlimit="4" stroke-dashoffset="0" id="path1379" d="m596.62793,300.559418a295.597595,296.197205 0 1 1 -591.195165,0a295.597595,296.197205 0 1 1 591.195165,0z"/>
   <path fill="url(#radialGradient4343)" fill-rule="evenodd" stroke-width="1px" marker-start="none" marker-mid="none" marker-end="none" stroke-miterlimit="4" stroke-dashoffset="0" id="path2836" d="m449.779968,556.535461c5.111359,-2.854736 7.388153,-4.380737 10.766479,-6.488037c-4.459686,-2.020813 -10.675568,-8.994385 -15.503723,-11.419006c-5.811371,-2.918396 -6.728973,-6.271423 -8.268646,-12.457153c-1.163025,-4.672302 12.101685,-4.152344 16.537292,-4.152344c9.891541,0 -0.504059,-10.195099 -1.378113,-11.072906c-2.215057,-2.224701 -15.207397,-3.126404 -19.293549,-4.152435c-7.200806,-1.808014 -11.38092,-2.768188 -19.293518,-2.768188c-8.610962,0 -11.047974,1.430542 -13.781067,6.920624c-2.248688,4.516998 -2.254028,12.832306 -4.134338,16.609406c-2.173462,4.365906 -17.962311,0.334229 -19.293518,0c-4.996277,-1.254517 -13.108154,-7.105713 -16.537323,-9.688843c-5.818268,-4.382751 -10.917969,-6.893768 -16.537323,-8.304718c-6.788544,-1.704529 -13.484528,-6.351196 -17.915405,-9.688843c-3.23172,-2.434387 -13.062561,-4.664001 -16.537292,-5.536499c-6.428284,-1.614105 -11.827362,-1.384125 -19.293549,-1.384125c-5.296234,0 -14.593048,-1.241974 -20.671631,-2.768219c-9.729706,-2.443024 -19.412674,-1.760071 -28.940308,-4.152344c-7.378174,-1.852631 -15.584305,-4.152374 -23.427841,-4.152374c-7.529297,0 -17.644852,-5.122528 -24.805969,-6.920624c-5.771744,-1.449249 -14.007339,-6.744995 -17.915405,-9.688843c-3.950912,-2.976074 -11.292206,-4.978668 -15.15921,-6.920624c-4.643494,-2.331848 -12.757263,-1.384094 -19.293518,-1.384094c-7.070709,0 -12.509857,-1.41098 -17.915421,-2.76828c-5.519363,-1.385834 -9.424629,-5.313354 -12.402985,-8.304688c-3.861229,-3.878082 1.219666,-13.204681 1.378105,-13.841248c0.291496,-1.171051 12.057541,-2.764557 13.781082,-9.688843c2.106232,-8.461609 11.522652,0.999908 12.402992,2.76825c2.702087,5.427765 12.053757,1.296448 17.915421,2.76825c5.279251,1.325562 6.78093,8.194611 9.646774,11.072998c5.645874,5.670502 2.288223,-2.272278 4.134323,-9.688873c0.836502,-3.360657 14.287537,-2.76825 17.915405,-2.76825c5.012924,0 13.973282,1.778412 17.915421,2.76825c9.820953,2.465942 10.252899,-5.038269 24.805969,-1.384125c6.474594,1.625702 10.000046,6.6633 16.537308,8.304749c9.46759,2.377197 11.241791,-1.16626 16.537292,4.152344c4.97876,5.000427 1.902069,10.546722 9.64679,2.76828c6.173431,-6.200409 3.207977,-2.337433 5.512421,6.920563c1.927368,7.743103 10.18808,-1.927826 12.402985,-4.152344c4.108734,-4.126709 -5.512421,10.773438 -5.512421,16.609467c0,2.344086 13.693512,4.800415 15.15921,5.536438c3.580566,1.798157 3.651276,11.629395 2.756195,15.225342c-2.476288,9.948334 1.914551,8.035339 6.890564,5.536499c5.759827,-2.892487 3.933228,-10.496613 2.756226,-15.225342c-1.53006,-6.14679 -2.935242,-10.35379 -1.378143,-16.609436c0.658569,-2.645691 5.138641,9.806549 4.134338,13.841217c-2.709656,10.885925 5.674377,8.264008 11.024872,6.920563c0.715271,-0.179596 0,-18.886749 0,-20.76178c0,-2.306885 5.512451,1.845459 5.512451,4.152374c0,1.348358 15.846008,-7.610474 5.512421,2.768219c-7.762848,7.796722 3.734833,4.352997 6.890533,2.76825c5.347809,-2.685577 5.379272,1.250336 9.646759,5.536499c2.1539,2.163269 0.583984,-19.393311 0,-20.761841c-0.873779,-2.04776 -10.919373,-6.814636 -12.402954,-8.304688c-3.792297,-3.808899 -7.950836,-5.217316 -12.402985,-9.688873c-7.079102,-7.109985 -7.571228,-2.084595 -9.646759,0c-3.703552,3.719696 8.699432,5.969086 12.402985,9.688873c2.838226,2.850586 13.123383,8.304688 1.378082,8.304688c-3.601196,0 -11.314087,-5.681702 -13.781067,-6.920624c-4.892883,-2.457092 -4.300629,-10.356934 -5.512451,-15.225311c-1.69397,-6.805511 -1.605133,-13.369171 -2.756226,-17.993591c-2.181,-8.762085 2.747986,-15.217041 -4.134308,-8.304718c-1.246429,1.251831 3.358948,14.87854 4.134308,17.993591c1.50238,6.035675 0,14.50354 0,20.761749c0,10.288025 -6.145386,-6.695251 -6.890533,-9.688812c-1.648712,-6.623596 -2.756226,-10.814056 -2.756226,-17.993561c0,-6.765472 -3.393921,-10.969849 -5.512451,-15.225342c-2.802063,-5.628571 -2.878021,-9.811188 -6.890533,-13.841187c-0.493622,-0.495758 2.313843,14.832184 2.756226,16.609436c1.482391,5.955505 3.948517,10.326538 5.512451,16.609467c1.381165,5.548859 2.756226,9.737244 2.756226,17.993591c0,12.02594 -4.550385,4.700775 -6.890564,0c-2.371124,-4.762909 -5.209991,-9.385101 -8.268646,-12.457092c-5.877502,-5.903137 3.698914,-11.182312 -6.890564,-13.841217c-7.318726,-1.837677 -5.579712,-4.861328 -13.781067,-6.920624c-4.276367,-1.07373 6.211304,-10.390778 6.890533,-11.072968c7.004364,-7.034943 -17.514282,-5.737946 -4.134338,-12.457092c7.189026,-3.610199 -7.126587,-9.115326 -8.268646,-9.688843c-0.889984,-0.44693 -8.268661,-18.836609 -8.268661,-4.152344c0,8.080505 -0.301849,7.072174 -8.268646,11.072937c-3.7276,1.871948 1.378098,12.262848 1.378098,16.609467c0,7.968353 3.054855,9.9888 6.890549,13.841217c5.839752,5.865204 5.78125,12.870605 -1.378098,11.072968c-5.544983,-1.392273 -9.055328,-4.152374 -17.915436,-4.152374c-8.354309,0 -2.391846,-8.304718 -12.402985,-8.304718c-8.318619,0 -10.792633,1.500702 -16.537308,-1.384125c-7.192261,-3.611847 -5.562759,-9.486694 -4.134323,-15.225342c2.164963,-8.697632 -5.333466,-8.259796 -11.024872,-9.688843c-7.313736,-1.836395 -12.273804,1.384155 -19.293518,1.384155c-6.047699,0 -5.890259,9.06366 -8.268661,13.841187c-0.844833,1.697052 -11.526443,6.354492 -13.781082,6.920593c-4.227905,1.061584 -10.952591,-5.500183 -13.781097,-6.920593c-5.191376,-2.606995 -13.127197,-1.384125 -19.293526,-1.384125c-4.538994,0 -11.997658,-5.780731 -16.537315,-6.920624c-8.234665,-2.067627 -13.082428,2.748993 -15.159195,6.920624c-3.631966,7.295593 -1.996094,9.307129 -8.268654,12.457092c-4.629707,2.324951 -16.447845,-0.669617 -19.29353,-1.384125c-5.537579,-1.390442 -9.41608,-5.304779 -12.402977,-8.304718c-4.216244,-4.234619 -6.712463,-6.875916 -12.402988,-8.304718c-10.012314,-2.514038 -8.743946,0.812347 -7.062807,6.228516c9.191187,29.611603 26.227903,59.907257 41.687803,81.144135c2.205151,3.029114 31.930706,-2.147156 34.280468,-1.557159c6.278511,1.576508 12.451668,2.100616 19.293526,5.536469c5.799644,2.912537 13.632614,3.385742 17.915405,5.536499c7.326477,3.67923 11.997681,7.510864 20.671646,9.688843c7.323868,1.838959 12.210861,1.23938 17.915405,5.536499c3.794601,2.858337 16.340195,5.487 22.049759,6.920563c6.874496,1.726135 13.663025,4.122742 19.293518,5.536499c8.046692,2.020447 18.513229,9.989075 23.427856,12.457153c6.620728,3.324768 15.400543,5.308105 23.427872,6.920532c8.572968,1.722107 15.373444,4.152344 24.805939,4.152344c7.560028,0 17.46701,5.077942 24.805969,6.920654c2.67395,0.671387 1.948944,6.347229 0,8.304688c-1.314545,1.320313 14.204468,5.296753 15.15921,5.536499c6.723267,1.688171 14.042389,1.10376 20.671631,2.768311c6.00946,1.50885 14.440582,0 20.671661,0c6.890533,0 13.781067,0 20.6716,0c9.187408,0 18.374817,0 27.562195,0c8.322266,0 12.292786,-1.356506 17.915405,-2.768311c6.009491,-1.508911 10.90921,-0.086487 17.140259,-0.086487z"/>
   <path fill="url(#radialGradient4331)" fill-rule="evenodd" stroke-width="1px" marker-start="none" marker-mid="none" marker-end="none" stroke-miterlimit="4" stroke-dashoffset="0" id="path2851" d="m572.517822,324.08963c3.374146,10.07312 3.510742,21.955872 -1.489136,31.502441c-4.026245,1.997314 -7.681335,3.401886 -6.323975,9.295349c-4.420288,6.750519 1.446594,13.252747 3.928162,19.416748c3.282959,4.45639 7.123718,17.818512 -2.707642,14.414246c-2.512085,-5.268158 -7.351929,-9.219025 -11.343201,-2.459076c-3.286743,7.454285 -1.836304,16.459045 5.958801,20.013397c3.703674,7.619171 -12.357483,5.095856 -8.694702,14.394226c2.175781,7.741791 -7.072876,14.898773 -12.246948,7.599579c-1.021851,-6.442871 -6.526245,-7.232391 -8.424622,-0.678986c-0.772949,11.82196 -11.2547,1.30658 -12.040833,-5.062988c-2.111755,-7.620331 -12.001373,-7.424988 -14.480652,-14.480743c-0.826782,-6.94043 -3.724243,-16.259979 -12.482269,-15.088287c-8.975433,3.792297 -4.061127,15.205017 0.81778,20.47403c3.994934,6.910767 9.813568,11.852203 16.257996,16.248413c3.99054,3.85318 15.49707,12.814026 8.422058,17.871857c-9.208313,-1.464691 -16.009094,-9.650513 -21.495056,-16.706512c-5.633209,-8.376587 -14.583435,-13.964386 -20.111053,-22.422241c-3.573395,-8.862213 1.015411,-17.289551 0.574951,-26.16806c-2.52652,-6.974335 1.675934,-15.359467 9.753265,-10.957672c5.167175,0.547394 10.844299,-7.381989 14.078888,1.170807c1.868896,6.90387 14.689423,11.606445 8.972076,18.926422c-5.635956,7.224731 3.069153,7.364685 7.951782,5.052246c6.324585,-0.43988 15.456543,2.112396 19.656189,-3.616058c-0.221558,-7.062408 1.889465,-14.974396 8.460754,-18.686523c4.986084,-4.487366 4.063416,-14.763885 -0.678101,-19.320679c-7.402832,-5.103027 -2.157532,-14.651947 -5.149353,-21.543793c-1.907715,-5.636993 10.354126,-12.167053 1.456299,-16.178894c-9.105713,3.283295 -8.165588,-10.143463 -14.165161,-10.500336c-3.775818,6.041718 -13.345032,2.901672 -15.093109,11.643463c-7.287537,4.857758 -17.800995,3.294281 -21.164398,-5.622437c-4.781647,-10.815033 -9.233917,4.080994 -6.320618,9.415527c3.609039,9.230377 -7.752167,8.147675 -11.792633,10.61853c0.319305,6.136505 -0.937225,13.449799 -8.932892,9.972565c-9.343201,-3.256226 -0.221344,-15.419769 -2.009857,-19.753998c-7.475525,-0.679565 -20.554718,0.788757 -21.109894,-9.774384c4.399231,-8.073608 14.569763,-8.683197 22.634583,-9.282532c3.010254,-3.56424 4.719849,-7.677673 9.866425,-5.032806c7.232788,-4.046417 6.743195,-12.169403 0.720581,-16.92569c-0.170715,-4.39093 -1.067139,-13.691528 1.746887,-15.369171c4.592377,1.266418 5.811707,14.352417 9.733704,10.495178c-2.13446,-6.10022 -2.28598,-17.111633 6.7146,-10.748993c0.912201,5.215668 -0.684479,16.358826 8.254028,12.163879c6.420135,-5.189575 18.923492,-3.014069 14.069733,7.106293c-5.457184,3.970154 -7.685455,18.272461 2.702759,15.515137c8.054565,0.680573 12.854675,-11.240051 21.370422,-7.226959c5.340515,6.89386 11.172607,13.96524 20.994263,12.42038c4.951782,1.408203 8.659851,5.486481 13.159119,7.877106z"/>
   <path fill="url(#radialGradient4428)" fill-rule="evenodd" stroke-width="1px" marker-start="none" marker-mid="none" marker-end="none" stroke-miterlimit="4" stroke-dashoffset="0" id="path4361" d="m176.311432,211.97583c8.867401,1.459656 17.108978,-3.766403 25.754471,-4.886032c11.617126,-1.508255 23.613174,0.661087 34.954681,-3.091309c7.096497,-1.433044 12.480118,-7.060806 19.706375,-8.185074c6.377899,-3.141891 13.637054,-2.30748 20.136139,-4.668259c6.387451,-3.534943 13.48645,-5.032318 20.470551,-6.861954c6.478577,-2.258362 12.665039,-5.433167 19.622406,-6.055527c7.624695,-2.222595 15.971008,-1.608521 23.385468,0.665482c-5.691864,5.864578 -13.060547,9.581802 -19.783905,14.04512c-7.592102,5.858521 -12.209625,14.771622 -14.440643,23.970734c-2.491333,5.278397 -7.127289,10.160782 -12.86261,11.678543c-13.824921,2.934586 -28.201599,-0.183884 -42.004272,3.167297c-10.807068,1.658081 -21.780945,0.521729 -32.638168,1.455841c-7.556519,0.451202 -12.657959,-5.974075 -19.29274,-8.215454c-6.467758,-0.781677 -14.139313,-0.315369 -18.421494,-6.408691c-1.756378,-2.033386 -3.205292,-4.310654 -4.586258,-6.610718z"/>
   <path fill="url(#radialGradient4339)" fill-rule="evenodd" stroke-width="1px" marker-start="none" marker-mid="none" marker-end="none" stroke-miterlimit="4" stroke-dashoffset="0" id="path2856" d="m367.868591,178.756927c2.737061,0 15.701294,1.520248 20.671661,2.76825c8.676514,2.178589 -9.166046,8.304718 -12.402985,8.304718c-6.345154,0 -12.849548,1.384125 -20.671661,1.384125c-8.248932,0 -12.206726,0.988815 -19.293518,2.76825c-7.320251,1.838043 -13.496674,4.701584 -17.915405,6.920609c-6.980591,3.505524 -11.682678,5.866791 -16.537323,8.304703c-4.982025,2.501892 -7.83136,6.4814 -11.024872,9.688843c-7.593414,7.626572 -0.051361,7.625595 2.756226,6.920639c5.599396,-1.40596 8.917023,-4.803558 12.402985,-8.304749c3.727539,-3.743805 9.903137,-4.97316 13.781067,-6.920593c6.053101,-3.039764 11.288544,-4.218567 16.537323,-5.536499c6.158813,-1.546402 10.047882,-2.522919 16.537292,-4.152344c5.778839,-1.451035 10.068726,-2.76825 17.915436,-2.76825c7.868744,0 11.100128,-0.654282 17.915436,2.76825c6.707794,3.36853 15.557037,0.938187 2.756195,4.152344c-7.096954,1.781982 -13.680634,0.641632 -17.915405,2.76825c-5.082214,2.5522 -0.116486,12.574066 -4.134308,16.609451c-5.288849,5.31189 -5.959381,6.920593 -15.15921,6.920593c-6.63974,0 -9.352081,-4.078339 -15.15921,-5.536453c-3.2211,-0.808807 -9.577026,6.885559 -12.402985,8.304703c-6.05127,3.038818 -9.517609,2.638504 -13.781097,6.920609c-3.306213,3.320633 -5.324127,10.694656 -6.890533,13.841232c-3.210632,6.449188 -5.696655,10.058868 -8.268677,15.225311c-2.71109,5.445892 -12.402985,4.226807 -12.402985,-2.76825c0,-6.876953 4.134338,-10.18631 4.134338,-17.993561c0,-6.255417 4.473724,-11.413818 -2.756195,-4.152359c-3.674988,3.690979 -1.837494,12.918442 -5.512451,16.609451c-5.073914,5.096008 -12.557007,-7.844711 -16.537323,-13.841232c-1.801788,-2.714462 -3.642273,6.920639 -6.890533,6.920639c-8.890808,0 -0.992401,-15.612717 -11.024887,-5.536499c-2.499252,2.510147 4.134354,12.23822 4.134354,16.609436c0,8.878723 -0.878891,10.601593 -8.268677,12.457092c-6.725327,1.68866 -7.808044,1.615417 -13.781082,-1.384125c-4.615631,-2.317871 -9.662308,-6.236328 -13.781082,-8.304718c-6.085754,-3.056152 -12.342773,-3.430054 -16.537338,-5.536499c-5.379913,-2.70166 -12.93129,-1.516754 -17.91539,-2.768219c-8.388947,-2.106384 -13.310364,0.911346 -17.915436,5.536469c-5.82547,5.850891 -5.7341,4.733124 1.378128,8.304749c8.333069,4.184692 1.590973,8.889862 -2.756226,11.072968c-6.3022,3.164825 -13.949631,4.194641 -19.293533,5.536469c-6.00946,1.508942 -14.440567,0 -20.671631,0c-5.359818,0 -12.992294,6.524506 -16.537323,8.304718c-8.369202,4.20285 1.767258,11.463806 4.134338,13.841248c4.937416,4.958923 6.638092,5.029358 9.646759,11.072937c2.231903,4.483276 0.438889,15.60437 1.378113,19.377716c1.945824,7.817261 9.352081,8.504944 11.024872,15.225311c1.731308,6.955414 -11.341568,5.536469 -16.537315,5.536469c-5.382195,0 -12.139168,-9.423889 -13.781082,-11.072937c-3.445274,-3.460327 -4.823387,-8.996796 -8.268654,-12.457092c-3.300163,-3.314545 -14.49691,-0.858368 -17.915421,0c-9.12677,2.291626 -9.558952,-5.183716 -11.024872,-11.072968c-1.134491,-4.55777 3.932175,-12.051025 5.512436,-15.225342c3.245651,-6.519592 4.47393,-12.476868 2.756218,-19.377686c-2.144508,-8.615448 0.835846,-12.876862 5.512444,-15.225342c5.671005,-2.84787 12.449379,-2.099487 16.537308,-4.152344c6.66465,-3.346863 7.48307,-6.377319 15.159195,-8.304749c9.2388,-2.319763 13.026001,-2.50293 11.024872,5.536499c-1.399452,5.622223 -9.136078,9.688843 2.756226,9.688843c8.573746,0 9.802826,-2.76825 17.915405,-2.76825c5.560059,0 5.512436,-11.368713 5.512436,-12.457092c0,-5.400421 -6.890533,-5.278961 -6.890533,-13.841202c0,-4.853027 9.0513,-8.304718 13.781082,-8.304718c8.305557,0 10.163193,-2.249588 15.15921,2.768219c3.572281,3.587875 6.857178,10.93898 4.134308,0c-2.454712,-9.861694 3.462204,-9.520065 9.646774,-11.072952c9.664185,-2.42659 4.015305,-6.198669 -4.134323,-4.152359c-10.947342,2.748764 -2.879852,-8.242645 0,-9.688843c4.797134,-2.409058 16.538101,0 22.049744,0c5.971909,0 9.604553,4.141769 15.15921,5.536469c7.859253,1.973389 10.337601,-2.768219 17.915405,-2.768219c6.446533,0 9.056564,-5.735046 11.024887,-9.688858c0.601135,-1.20755 17.660049,-2.358109 19.293533,-2.768234c5.119751,-1.285538 9.611908,-5.501495 12.402954,-8.304749c2.79715,-2.809341 11.509491,-5.536484 16.537323,-5.536484c5.692719,0 10.09964,-5.650192 15.15918,-6.920578c4.145233,-1.040817 9.585388,-4.136963 15.15921,-5.536499c7.291077,-1.830719 10.605774,-5.431244 16.537323,-6.920609c6.597351,-1.656525 13.284851,-1.162704 17.915436,0c2.907898,0.730148 9.129425,-1.003387 11.024841,-1.384125z"/>
   <path fill="url(#radialGradient4341)" fill-rule="evenodd" stroke-width="1px" marker-start="none" marker-mid="none" marker-end="none" stroke-miterlimit="4" stroke-dashoffset="0" id="path2858" d="m201.117386,317.169037c6.380798,1.602142 -12.716354,-4.152344 -19.293518,-4.152344c-7.041595,0 -14.113708,0.083496 -19.293533,1.384094c-7.947342,1.995514 -10.987,6.768524 -12.402969,12.457092c-2.551407,10.250214 9.510376,3.494568 12.402969,2.76825c7.260437,-1.823059 9.837402,-5.238342 16.537323,-6.920593c6.700363,-1.682434 11.177505,3.536926 15.159195,5.536469c5.795822,2.910553 9.081406,4.294342 15.15921,2.768219c6.120071,-1.536652 10.308792,-2.947998 16.537292,-1.384094c5.943832,1.492432 15.376129,-0.400513 19.293533,-1.384125c9.20166,-2.310455 -8.479156,-8.011566 -9.646759,-8.304718c-8.923325,-2.24057 -9.722931,-1.02475 -15.15921,-8.304749c-1.75293,-2.347443 -10.530716,-6.672455 -13.781082,-8.304718c-6.678879,-3.354004 -10.884521,-6.638641 -6.890549,1.384125c3.685043,7.402222 6.424606,-0.214172 1.378098,12.457092z"/>
   <path fill="url(#radialGradient4355)" fill-rule="evenodd" stroke-width="1px" marker-start="none" marker-mid="none" marker-end="none" stroke-miterlimit="4" stroke-dashoffset="0" id="path2860" d="m359.599945,426.514587c2.941406,5.908478 -12.91272,-5.754517 -19.293518,-4.152374c-4.389191,1.102081 1.46579,10.424988 5.512421,12.457092c6.19986,3.113464 10.713654,4.688202 15.15921,6.920563c5.085541,2.553925 9.484772,4.763123 13.781067,6.920715c8.345764,4.19101 -0.750153,11.072906 -6.890533,11.072906c-4.308472,0 -2.751068,8.284088 -4.134308,13.841217c-1.794373,7.208801 -5.936249,6.920624 -13.781097,6.920624c-7.245361,0 -6.46109,-5.060089 -13.781097,-1.384155c-5.179962,2.601288 -7.720001,6.369629 -11.024872,9.688873c-3.58905,3.604736 14.254425,4.152344 16.537323,4.152344c12.618011,0 25.246002,1.384125 35.830811,1.384125c9.281708,0 12.197174,0.206696 16.537323,-4.152344c7.370422,-7.402588 -7.196289,-9.688843 -11.024872,-9.688843c-6.173401,0 -9.899323,-6.551147 -11.024872,-11.072998c-0.969757,-3.895935 12.031311,-6.041931 13.781097,-6.920563c0.84024,-0.421997 -5.168274,-14.533966 -5.512451,-15.225403c-2.536346,-5.094727 -9.416687,-10.841888 -12.402985,-13.841156c-3.458008,-3.473114 -0.870819,-0.976532 -8.268646,-6.920624z"/>
   <path fill="url(#radialGradient4353)" fill-rule="evenodd" stroke-width="1px" marker-start="none" marker-mid="none" marker-end="none" stroke-miterlimit="4" stroke-dashoffset="0" id="path2864" d="m9.560231,250.385208c5.340172,-31.142746 16.87157,-63.840012 27.562179,-83.393311c-1.712368,-7.788254 13.402828,5.848633 17.915417,10.380905c5.630028,5.654587 -2.968666,11.179672 -5.512428,12.457092c-5.490116,2.757034 12.561092,2.768265 15.159195,2.768265c7.80928,0 15.618576,0 23.427849,0c8.470345,0 15.937019,-1.38414 24.805977,-1.38414c6.773079,0 14.530228,-0.18811 19.293526,-1.384125c6.370163,-1.599487 10.798172,-4.095428 16.537308,-5.536469c5.812012,-1.459351 11.078232,-4.165771 16.537308,-5.536499c8.176056,-2.052933 16.857208,-2.156509 24.805969,-4.152344c7.932846,-1.991867 18.102692,-2.469254 24.805969,-4.152374c6.734726,-1.691025 16.248413,-1.384125 22.049728,-1.384125c7.960632,0 -12.192474,9.092911 -15.15918,9.688843c-11.251053,2.260025 -22.326981,3.377594 -33.074631,5.536499c-10.471344,2.103394 -17.397446,8.866699 -26.184082,11.072952c-9.077484,2.279282 -14.260864,6.002991 -23.427841,8.304733c-7.76532,1.949783 -16.629738,8.360428 -23.427856,12.457092c-6.842697,4.123535 -14.226486,5.98381 -19.293526,11.072968c-4.534081,4.553848 -14.875443,4.081116 -20.671654,5.536484c-8.665085,2.175705 -16.575397,2.787384 -24.805954,6.920609c-7.499672,3.76619 -14.051128,4.287949 -19.29353,6.920593c-5.272644,2.647812 -10.742689,2.697403 -16.537305,4.152359c-1.336955,0.335709 -4.134326,-0.346008 -5.512438,-0.346008z"/>
   <path fill="url(#radialGradient4333)" fill-rule="evenodd" stroke-width="1px" id="path2866" d="m470.882263,57.992378c-21.741241,-15.380249 -51.718597,-30.137976 -66.321533,-34.949055c-4.956116,1.244429 -27.762146,9.356716 -35.313995,13.149139c-5.483948,2.753929 -16.384247,3.767899 -23.427887,5.536488c-9.564789,2.401623 -19.350006,3.610062 -28.940308,5.536491c-9.600342,1.928448 -17.785187,3.572556 -27.562164,5.536476c-9.732635,1.955025 -20.147278,1.384117 -30.31839,1.384117c-9.646774,0 -19.293549,0 -28.940308,0c-7.809265,0 -15.618546,0 -23.427841,0c-7.349915,0 -14.699844,0 -22.049759,0c-7.296677,0 -13.643417,0.034573 -19.293518,-1.384117c-15.592209,-3.915047 -25.127533,-1.224808 -31.696518,3.4603c-29.118652,20.767941 -49.373413,41.803127 -62.5317,58.306103c-5.931877,6.496239 22.058952,6.055527 30.835197,6.055527c10.074013,0 19.946312,1.384125 30.318405,1.384125c9.041962,0 18.159927,-1.384125 27.56218,-1.384125c8.728027,0 17.456039,0 26.184067,0c14.308395,0 27.512253,-2.76825 41.343262,-2.76825c11.091049,0 21.727356,-2.768227 33.074646,-2.768227c8.353882,0 17.994293,-6.24836 26.184082,-8.304726c12.726837,-3.19561 23.699615,-6.642822 35.830811,-9.688843c8.759338,-2.199394 18.903351,-4.152374 27.562195,-4.152374c9.095245,0 21.562927,-3.338066 30.31839,-5.536476c11.609619,-2.91507 25.375671,-3.746399 34.452728,-8.304741c6.247925,-3.137581 14.91272,-6.267929 23.427856,-9.688843c6.703522,-2.693115 11.782013,-2.266304 19.293518,-4.152367c5.196869,-1.304863 10.371887,-5.727581 13.436584,-7.266624z"/>
   <path fill="url(#radialGradient4345)" fill-rule="evenodd" stroke-width="1px" marker-start="none" marker-mid="none" marker-end="none" stroke-miterlimit="4" stroke-dashoffset="0" id="path2868" d="m172.177094,418.209869c-3.171753,5.63385 -1.045135,13.125916 2.756226,20.761841c3.140244,6.307861 6.032043,8.826538 11.024872,13.841217c4.285675,4.304321 102.137421,33.125031 106.11441,41.52359c3.428406,7.240082 -12.513885,5.536499 -16.537323,5.536499c-8.728027,0 -186.206802,-30.450684 -192.935265,-30.450684c-6.890556,0 -23.429207,1.626434 -20.499371,5.536499c113.916935,152.029388 295.748936,140.156158 390.521671,80.106049c2.005005,-1.270508 -13.528687,-7.658997 -14.470154,-8.131775c-5.242432,-2.63269 -7.34787,-9.223389 -9.646759,-13.841187c-2.22998,-4.479431 -4.293854,-13.097961 -5.512451,-17.99353c-1.481689,-5.952667 -5.948883,-9.798523 -11.024841,-11.072998c-6.043854,-1.517578 -9.805664,-3.074371 -16.537323,-1.384155c-6.718079,1.686859 -10.181641,2.76828 -17.915436,2.76828c-4.651855,0 -12.648102,1.384064 -19.293518,1.384064c-6.890533,0 -13.781097,0 -20.671631,0c-7.846924,0 -12.242096,-0.997681 -19.293518,-2.768188c-5.781158,-1.45163 -10.395111,-4.528168 -15.15921,-6.920654c-7.59082,-3.811951 -5.289612,-4.90036 2.756226,-6.920563c7.093536,-1.781128 14.451324,1.028625 17.915405,2.768219c4.923401,2.472473 11.310059,2.839874 16.537323,4.152344c6.00946,1.508911 14.440552,0 20.671631,0c13.046753,0 -0.492706,-17.104248 -4.134308,-20.761749c-3.878998,-3.895966 -5.380402,-21.6539 -37.208984,-24.914215c-6.489685,-0.664795 -11.08786,-1.538818 -16.537292,-4.152405c-29.981049,-14.378967 -122.127914,-32.781189 -130.92038,-29.066498z"/>
   <path fill="url(#radialGradient4426)" fill-rule="evenodd" stroke-width="1px" marker-start="none" marker-mid="none" marker-end="none" stroke-miterlimit="4" stroke-dashoffset="0" id="path4357" d="m416.102417,98.477905c-16.421417,0.602631 -29.308472,12.735077 -44.272614,18.115738c-11.286835,3.815392 -23.092865,6.248695 -35.05481,5.41433c-16.324127,-0.148849 -32.692841,0.655182 -48.936523,-1.324661c-12.091949,-0.383354 -24.116943,-2.063492 -36.247818,-1.443588c-17.005814,0.681427 -35.113693,-2.649323 -50.891891,5.520958c-12.620834,4.234467 -26.082153,5.980316 -37.811584,12.701736c-5.578598,1.376404 -9.595978,8.046768 -0.711823,6.364578c6.113113,0.053116 16.04393,-1.196854 19.562408,3.593857c-4.148132,1.553421 -16.790894,4.221344 -6.00885,7.231033c14.576813,5.358795 30.101517,1.470245 45.145004,1.638092c14.536942,-1.024353 29.096222,-1.531357 43.63649,-2.44722c13.748627,0.528061 26.958374,-3.699326 40.424194,-5.466644c16.361053,-1.044998 34.062347,2.704239 48.997223,-6.039093c8.890381,-2.735397 16.474518,-8.027023 24.62796,-12.247803c11.347534,-4.888451 22.851868,-9.43129 34.046844,-14.652306c8.137421,-4.056129 13.219879,-10.821289 3.495789,-16.959007z"/>
   <path fill="url(#radialGradient4424)" fill-rule="evenodd" stroke-width="1px" marker-start="none" marker-mid="none" marker-end="none" stroke-miterlimit="4" stroke-dashoffset="0" id="path4359" d="m579.408386,400.216309c26.757507,-74.57428 23.805115,-161.951767 -17.22644,-238.241837c-11.4021,0.009598 -38.519287,9.895737 -34.452698,27.855423c-6.729309,1.027008 -13.626526,-15.955475 -20.797424,-2.768219c-9.473328,12.455612 -29.944366,1.883728 -15.064178,-9.940384c19.363922,-1.850952 2.198486,-47.904617 -5.481659,-19.126175c-0.5755,21.237274 -29.235504,9.649689 -33.178131,26.906998c-5.091919,19.559204 -33.866791,-8.132141 -32.570679,15.185089c-3.464844,15.480042 -27.02066,10.023499 -27.962616,28.498077c-16.282562,6.324448 -36.401459,-0.650467 -50.733063,9.42157c-12.018799,10.230804 -28.445496,17.527039 -29.462036,35.812943c-8.140656,10.558105 10.234009,27.809906 -12.333191,20.465027c-15.476013,-6.732178 -26.06427,-5.757538 -42.749268,-9.477936c-18.543533,9.702637 10.730164,16.762482 19.940826,16.300415c8.96109,4.11618 -7.166626,11.975769 -26.074692,7.602142c-6.676254,-1.589508 -31.993866,-21.743744 -23.961685,-5.381622c16.064575,12.273773 46.188202,15.759888 55.789764,23.149231c9.68985,13.726349 0.359283,-3.186737 -17.148895,5.964478c-12.257629,13.449951 5.431,30.166595 17.582611,36.169373c13.777618,8.601685 20.665344,25.246307 37.000519,29.976501c13.592651,11.721436 32.925232,22.129395 47.34314,4.397125c19.470306,-9.350952 25.368713,19.341187 41.981171,23.92099c16.16748,3.264496 27.52829,16.19397 42.083496,23.13913c22.121002,7.387085 0.83902,26.429504 -13.055847,25.854919c-15.527252,2.655792 -30.511383,-6.170776 -44.224274,-12.39917c-17.3638,0.804779 -27.658569,-15.141357 -41.723328,-22.687897c-16.512726,-12.755035 4.389893,9.2771 9.202667,12.623352c11.718781,11.202972 31.258514,11.238525 38.476105,25.971436c8.911316,16.032257 29.388641,6.111755 43.435669,7.112274c12.243927,-9.568024 47.227539,7.910583 61.754089,18.597046c15.019165,-8.545685 18.1698,-36.185455 7.087341,-43.990936c-0.554382,-10.287994 -47.781525,-53.914795 -55.487793,-35.018402c-6.329468,16.459564 -21.657593,-6.690918 -17.348663,-15.05249c-14.49588,-2.867157 -17.474213,-14.138824 -6.737793,-24.245056c5.646606,-4.507355 7.666351,-24.275177 -0.671722,-8.739349c-4.995361,10.823181 -23.686737,10.138245 -9.646759,-1.384155c6.711884,-6.328033 19.667297,-24.216125 19.203339,-5.679108c7.218231,0.731842 21.963409,-1.117828 14.574829,10.045776c7.345642,6.995117 26.764221,-10.016724 7.565155,-9.903137c-3.568665,-6.453278 7.282043,-21.250397 -9.625153,-17.638397c-7.255798,-2.890015 -9.501801,-14.548309 -16.422974,-1.705261c-4.308441,5.858856 -23.11676,15.84671 -22.14151,13.907593c10.038452,-1.571533 6.642334,-32.042297 14.57489,-21.774841c4.167786,23.384399 13.240784,-22.845673 0.5401,-19.849213c-16.095764,11.59314 -26.259735,-25.730408 -4.134308,-20.76181c1.648315,-13.641022 16.473175,-0.029541 23.427795,-12.457092c8.16983,0.46347 -1.886841,30.196411 10.608337,14.414673c8.233521,-11.377563 -0.391968,-20.993591 -0.961578,-33.792358c13.649261,-5.795685 12.747284,-21.433441 18.063904,-31.954437c-0.050293,9.491501 2.739655,27.776642 12.69165,11.319138c10.301971,-15.490891 11.455353,15.833572 9.714417,22.639816c5.774048,7.667023 20.451813,-3.025238 24.01413,11.043732c21.863464,9.395782 -3.779724,-19.158844 3.043274,-29.657684c3.513855,-13.481216 25.89325,-10.604431 19.310242,-28.851532c-6.229675,-17.208221 17.701965,-32.594116 27.545471,-16.824493c4.21521,13.989548 5.124878,31.556198 -2.473145,44.485168c-8.492676,14.642578 -17.715698,29.747589 -22.0354,46.227448c-0.454102,15.793304 30.257507,14.220734 25.796448,34.449707c-0.331482,15.211884 -13.205505,28.67804 -7.462036,45.177917c3.230408,7.421783 4.73938,15.309753 10.997559,20.668488z"/>
   <path fill="url(#radialGradient5938)" fill-rule="evenodd" stroke-width="1px" marker-start="none" marker-mid="none" marker-end="none" stroke-miterlimit="4" stroke-dashoffset="0" id="path5910" d="m449.177063,437.587555c-9.431976,-7.18927 -18.258728,-15.15332 -27.059906,-23.075623c-3.624054,-8.794037 -13.077362,-11.302063 -18.552856,-18.530884c-6.185913,-7.128632 -16.274963,-7.356201 -24.382721,-10.972321c-7.977203,-1.494354 -16.080597,2.109039 -24.214783,0.194458c-9.486267,-0.330505 -19.819672,0.357819 -27.858795,-5.728424c-7.557922,-4.480194 -12.761414,-12.188416 -21.254303,-15.245636c-4.725159,-2.78421 -13.58493,-5.815491 -17.320557,-3.168579c9.025574,6.311279 20.321625,9.312714 27.866028,17.784729c7.774719,4.97345 12.420593,13.774231 20.830902,17.721802c8.700592,4.633698 19.993225,-0.894165 27.634583,6.331268c6.199524,4.167511 8.559692,13.396362 16.768951,14.242188c8.482727,1.373047 17.135101,1.448242 25.479401,3.716187c13.652771,1.086884 23.098938,12.433502 31.156494,22.325714c5.365601,6.625732 16.442017,5.494385 19.885498,14.113953c2.282593,8.263062 10.376648,11.023438 17.36731,14.305176c5.543823,4.910004 18.588257,4.741455 14.371521,-5.654114c-3.594208,-6.583435 -11.481903,-9.378143 -15.165344,-16.10025c-5.26709,-9.845978 -17.992004,-5.894562 -25.551422,-12.259644l0,0z"/>
   <path fill="url(#radialGradient4432)" fill-rule="evenodd" stroke-width="1px" marker-start="none" marker-mid="none" marker-end="none" stroke-miterlimit="4" stroke-dashoffset="0" id="path4363" d="m128.077606,372.533875c-6.654755,0 -12.402969,-7.602997 -12.402969,6.920593c0,2.238525 11.175804,7.072205 12.402969,8.304749c3.56427,3.579803 10.869385,3.845367 15.159195,2.76825c5.216263,-1.309784 -1.710464,-11.40683 -5.512421,-15.225342c-2.396332,-2.406769 -6.215195,-2.078918 -9.646774,-2.76825z"/>
   <path fill="url(#radialGradient4430)" fill-rule="evenodd" stroke-width="1px" marker-start="none" marker-mid="none" marker-end="none" stroke-miterlimit="4" stroke-dashoffset="0" id="path4365" d="m162.530334,366.997375c-5.679306,-5.704071 -12.424118,2.853271 -13.781082,8.304749c-1.668976,6.704987 8.172501,6.920593 13.781082,6.920593c5.507843,0 8.964325,-4.152344 16.537323,-4.152344c8.767792,0 11.011368,1.370514 15.159195,5.536469c3.31395,3.32843 6.521271,10.702087 6.890533,11.072968c2.508575,2.519531 4.134354,-13.799988 4.134354,-16.609436c0,-6.037811 -5.491074,-8.986053 -9.646759,-11.072998c-5.338272,-2.680756 -10.026138,-4.24762 -15.15921,-5.536469c-5.960831,-1.496704 -7.478409,-6.717346 -9.646774,-11.072968c-2.73259,-5.489044 5.699265,-5.143555 -6.890533,-8.304718c-5.197174,-1.304993 -8.583923,-6.999786 -13.781097,-8.304749c-4.737366,-1.189514 6.193832,7.60498 9.646759,11.072968c3.824203,3.840912 2.75621,14.711029 2.75621,22.145935z"/>
   <path fill="url(#radialGradient6002)" fill-rule="evenodd" stroke-width="1px" marker-start="none" marker-mid="none" marker-end="none" stroke-miterlimit="4" stroke-dashoffset="0" id="path4390" d="m588.366089,369.765625c5.60791,-24.24823 8.837158,-49.163483 8.317627,-74.085602c-0.400024,-3.721039 0.201599,-9.367279 -1.211609,-11.873016c-1.127319,0.659973 -3.318604,0.515778 -1.074402,-0.440613c-2.878174,0.194702 -3.978516,6.895172 -6.223999,2.337158c-1.463806,-3.720551 -6.818237,-3.474274 -6.775574,0.951813c-0.200378,3.439514 1.741577,6.53894 -0.707764,9.57077c-1.921387,3.809265 1.58667,6.115906 3.35675,8.756317c1.551208,4.307739 -6.148621,6.079193 -2.530396,10.485199c2.389038,3.649597 7.646057,3.728058 10.107178,7.354431c1.756042,3.25705 -0.994324,6.763855 -0.557434,10.220306c0.658997,5.544922 -2.58429,10.812866 -1.476074,16.345978c-0.264343,4.806549 -6.313293,3.868042 -8.966553,6.445801c-2.89032,2.545227 -3.876099,7.920197 -1.061523,10.813141c2.829102,1.483032 6.063599,1.102661 8.803772,3.118317z"/>
   <path fill="url(#radialGradient6031)" fill-rule="evenodd" stroke-width="1px" marker-start="none" marker-mid="none" marker-end="none" stroke-miterlimit="4" stroke-dashoffset="0" id="path6029" d="m534.032227,118.191437c-5.783752,-0.75592 -3.939148,6.50959 -11.550293,10.331726c-7.06311,3.546967 -10.499298,7.34874 -17.915405,11.072968c-7.379639,3.705917 -13.43634,10.207794 -20.671661,13.841217c-6.46228,3.245239 -11.444885,7.131531 -16.537292,9.688858c-6.983521,3.507004 -10.174072,3.297821 -15.15918,8.304718c-4.193787,4.212082 -14.284454,7.393021 -17.915436,8.304718c-3.359192,0.84346 -7.914459,10.137299 -9.646759,12.457108c-3.564301,4.773117 -5.884033,7.667053 -8.268646,12.457077c-2.549591,5.121384 -6.0448,7.989975 -8.268646,12.457092c-2.834808,5.694321 -7.905823,8.741867 1.378113,11.072983c6.00946,1.508911 14.440552,0 20.6716,0c4.134216,0 11.010315,-6.916962 16.537323,-8.304749c4.444611,-1.115982 10.175537,-4.285141 15.15921,-5.536484c6.284332,-1.577927 12.918915,-1.513641 17.915405,-2.768219c6.009491,-1.508942 14.440582,0 20.671631,0c6.890594,0 13.781067,0 20.671692,0c6.236267,0 10.605957,2.768219 17.915344,2.768219c6.890625,0 13.781128,0 20.671692,0c5.06427,0 13.983704,10.222992 16.028564,14.330582c2.908936,5.843262 4.68634,10.243332 8.268616,13.841202c3.617493,3.633255 8.783264,10.806458 8.268616,7.165268c-7.055664,-49.928101 -36.420654,-104.324768 -58.224487,-131.484283z"/>
   <path fill="url(#radialGradient5943)" fill-rule="evenodd" stroke-width="1px" marker-start="none" marker-mid="none" marker-end="none" stroke-miterlimit="4" stroke-dashoffset="0" id="path4393" d="m410.589966,247.270935c6.977295,0.423874 14.51297,-1.352448 20.938202,2.196747c4.797302,1.519272 5.662781,7.466339 10.464447,9.16275c2.63913,1.753387 6.619598,6.962494 0.707794,6.716675c-4.917572,1.213043 -6.911163,-4.122131 -9.424072,-7.152832c-4.694702,-3.74411 -10.423889,1.077789 -15.732819,0.148041c-4.309479,-0.374908 -10.041779,0.756958 -12.853088,-3.35321c-2.762787,-4.088821 0.745209,-10.211731 -3.86618,-13.251892c-7.57019,-3.96048 -16.308044,-2.01059 -24.45871,-2.039154c-4.291199,0.514297 -9.546631,-0.027878 -12.816528,3.315781c-2.55658,4.293396 -6.568726,7.167023 -11.36557,8.52124c-6.251587,2.552399 -9.951904,8.645798 -15.595795,12.144211c-3.05957,3.087982 -5.371674,6.532288 -9.866943,7.391998c-1.700073,2.133453 -0.45517,9.130157 -4.794312,5.153381c-4.494476,-2.456879 -6.278198,-7.418549 -5.737091,-12.340057c0.176422,-6.880371 8.542816,2.05603 10.305756,-2.714203c1.639648,-3.894897 -0.063629,-8.833481 2.566681,-12.244034c3.971008,-3.201492 7.791748,1.943771 10.90155,2.817566c2.160797,-5.536758 6.555359,-9.847351 8.611786,-15.546005c3.063995,-3.487244 8.30365,-1.541351 12.365479,-2.062576c4.043121,-4.484543 11.526154,-5.497894 15.090546,0.338242c3.728027,2.163315 8.566986,1.960739 12.577209,0.728104c2.996613,-3.656998 9.58252,-9.236755 13.052551,-3.093903c-0.992859,4.515839 -0.860046,9.076782 4.179474,11.154388c1.45224,1.493713 3.120972,2.719391 4.749634,4.008743z"/>
   <path fill="url(#radialGradient4446)" fill-rule="evenodd" stroke-width="1px" marker-start="none" marker-mid="none" marker-end="none" stroke-miterlimit="4" stroke-dashoffset="0" id="path4395" d="m560.114868,173.220459c1.107483,1.112335 2.348511,5.819077 4.134277,7.612656c2.918091,2.930817 2.836426,3.379776 0.689087,5.536469c-1.919495,1.927811 -7.510559,0.363373 -8.957703,0c-3.885132,-0.975525 -4.823364,-3.390076 -4.823364,5.536514c0,1.993851 -3.883362,4.59227 -4.823425,5.536484c-1.451721,1.458008 -3.905273,-6.692337 -4.134338,-7.612686c-1.120667,-4.502274 1.10144,-5.536469 4.823364,-5.536469c4.797241,0 6.201477,0.968628 6.201477,-4.152374c0,-5.168793 1.622864,-5.862457 6.890625,-6.920593z"/>
   <path fill="url(#radialGradient4448)" fill-rule="evenodd" stroke-width="1px" marker-start="none" marker-mid="none" marker-end="none" stroke-miterlimit="4" stroke-dashoffset="0" id="path4397" d="m414.113464,403.863953c0,-3.62796 -1.314728,9.085846 1.972137,10.708344c3.68811,1.820526 2.958191,7.164764 2.958191,11.681793c0,5.303528 2.816254,6.779327 6.902405,7.787872c5.772461,1.424713 7.620361,-2.655731 9.860565,-4.867432c3.727844,-3.680267 -4.900208,-8.746521 -6.902405,-9.734833c-4.232941,-2.089508 -6.065643,-3.215179 -7.888458,-6.814392c-2.230988,-4.405029 -1.705261,-5.682831 -6.902435,-8.761353z"/>
   <path fill="url(#radialGradient6021)" fill-rule="evenodd" stroke-width="1px" marker-start="none" marker-mid="none" marker-end="none" stroke-miterlimit="4" stroke-dashoffset="0" id="path4399" d="m281.067627,344.226563c-2.132782,-4.293793 6.010956,-7.547272 8.143707,-11.841095c3.071014,-6.182678 -4.029327,-6.045044 -6.334015,-5.465088c-3.745514,0.942566 -5.755798,2.896973 -9.048553,4.55426c-2.02298,1.018158 -5.650452,4.210175 -8.143738,5.465088c-4.131073,2.079254 -0.834503,8.339294 0,10.019379c2.438354,4.909027 -1.464417,0.479462 0,6.375916c0.118958,0.479065 7.754395,4.681274 9.048584,7.286804c2.89563,5.829681 -2.160431,7.110321 3.619415,10.019379c3.620392,1.822174 5.211823,-3.643402 9.95343,-3.643402c3.445221,0 5.46933,4.336639 9.95343,5.465118c5.472107,1.377045 7.800171,-2.386749 9.953461,-4.554291c3.653748,-3.677948 0.326141,-6.630157 -0.904877,-9.10849c-0.44696,-0.899841 -8.539825,-4.753601 -9.95343,-5.465118c-1.108887,-0.558105 -4.49939,5.686554 -7.238861,6.375977c-1.18045,0.297058 -4.196777,-8.449127 -4.524292,-9.108521c-0.829987,-1.67099 -3.946716,-5.406952 -4.524261,-6.375916z"/>
   <path fill="url(#radialGradient6019)" fill-rule="evenodd" stroke-width="1px" marker-start="none" marker-mid="none" marker-end="none" stroke-miterlimit="4" stroke-dashoffset="0" id="path4401" d="m330.213776,370.480255c-0.773315,-7.020142 -14.479156,-14.116302 -11.552551,-2.127533c-0.451324,8.832855 -15.221832,2.344025 -12.875549,13.13205c0.875122,12.521851 14.63324,9.709656 23.122925,11.615234c10.058594,2.186432 10.697479,13.428741 15.03302,20.604065c8.384644,3.912994 14.40506,-8.271698 20.353699,-12.927155c7.878418,-2.775848 9.822876,-17.850311 -1.529388,-12.339172c-8.411438,3.334259 -15.148041,-5.49231 -5.279358,-9.455292c-1.722931,-4.462708 -10.89209,-0.460724 -13.590973,-6.806152c-3.808411,-3.90448 -9.09903,-0.689972 -13.681824,-1.696045z"/>
   <path fill="url(#radialGradient4412)" fill-rule="evenodd" stroke-width="1px" marker-start="none" marker-mid="none" marker-end="none" stroke-miterlimit="4" stroke-dashoffset="0" id="path4403" d="m456.756622,196.750519c-0.488098,-8.09024 14.867126,-11.032227 18.970215,-4.101944c2.202637,9.044678 7.594604,17.002472 9.28244,25.857025c2.170624,11.02739 -12.655609,6.494675 -15.84964,0.390823c-4.960205,-5.675049 -11.539429,-6.628906 -17.11145,-1.796158c-5.163116,-1.03891 -14.14917,3.581207 -9.762817,8.32634c8.196747,-0.507111 15.786102,4.239471 17.067413,12.705475c-0.472382,6.671494 -13.230133,9.803146 -17.929596,3.999191c-9.346619,-1.454803 -2.789459,-15.134979 -12.228729,-17.698349c-5.735229,-5.61644 -0.31958,-13.838043 7.265625,-12.143707c5.644867,-5.040573 16.218567,-2.248016 18.290771,-11.090866c0.596985,-1.512558 1.170105,-3.046005 2.005768,-4.44783z"/>
   <path fill="url(#radialGradient4414)" fill-rule="evenodd" stroke-width="1px" marker-start="none" marker-mid="none" marker-end="none" stroke-miterlimit="4" stroke-dashoffset="0" id="path4405" d="m378.204437,279.105713c-3.772736,-3.708344 -12.610931,-7.717957 -14.470154,0.692047c-0.628357,5.553192 10.403534,0.600983 7.415009,8.255676c-0.845551,6.541229 0.264709,12.688232 8.02771,9.801422c4.70047,6.363922 -0.786713,16.621613 7.985107,20.698273c0.206329,8.435333 6.614044,12.027313 12.239655,17.137482c6.749359,4.345245 1.393433,17.640564 -6.727203,15.389374c-5.646301,-2.461761 -17.514679,-0.347321 -17.239166,-8.538116c0.010254,-5.180145 1.406494,-17.707214 -6.377655,-15.313934c-7.726135,7.090363 4.472229,15.569092 -1.343353,22.493835c-5.759644,6.784515 6.40863,13.083282 5.164429,20.56665c-4.007904,6.221893 0.475891,12.293701 7.532898,9.401428c5.900848,-0.332794 6.827484,-8.439148 9.968079,-9.46701c7.646393,6.217896 3.518005,-12.051941 12.292847,-10.901703c6.28421,-3.556366 1.484589,-14.508453 9.390564,-18.168671c4.749512,-5.516235 4.080475,-15.429504 -2.604584,-19.117889c-6.249146,-3.21048 -7.098206,-12.238007 -14.199219,-12.939606c-9.316284,-2.073669 -6.999329,-15.117004 -15.67688,-18.224243c-4.098694,-3.641144 2.658539,-7.983521 -1.378082,-11.765015z"/>
   <path fill="url(#radialGradient4416)" fill-rule="evenodd" stroke-width="1px" marker-start="none" marker-mid="none" marker-end="none" stroke-miterlimit="4" stroke-dashoffset="0" id="path4407" d="m465.714325,270.108917c-7.998657,-1.477234 -16.072479,2.619415 -18.685303,10.543304c-2.567139,7.235504 -12.319458,8.94104 -13.283966,17.023987c-3.371521,6.592194 7.842529,17.102386 11.286957,8.8591c0.813202,-7.014343 2.168518,-14.26767 6.901245,-19.816956c5.077606,-4.437347 16.481567,0.919434 18.43689,-7.657196c0.713562,-4.237488 0.406097,-7.942108 -4.655823,-8.95224z"/>
   <path fill="url(#radialGradient6008)" fill-rule="evenodd" stroke-width="1px" marker-start="none" marker-mid="none" marker-end="none" stroke-miterlimit="4" stroke-dashoffset="0" id="path5904" d="m187.336304,456.965271c15.638199,7.62027 31.144577,16.427399 48.296646,20.062897c7.655197,1.198822 15.388458,2.410034 22.590317,5.342072c8.14447,0.932983 16.112183,2.571777 23.859406,5.225311c14.298828,2.587799 28.900452,0.517456 43.329407,1.151794c19.580933,0.161682 39.193176,0.47757 58.700195,-1.507843c5.132385,0.904938 15.574829,-3.393066 17.95105,-0.029388c-11.310425,3.893036 -23.419189,4.946716 -35.190674,6.383148c-9.621704,0.075684 -19.154358,1.858215 -28.788574,1.43634c-8.85965,0.96463 -17.666382,2.908325 -26.629303,2.038055c-19.652435,-0.073914 -40.137238,2.100922 -58.84726,-5.370605c-6.358032,-4.676117 -13.051468,-8.841736 -20.418579,-11.656494c-9.041611,-4.29361 -19.05452,-5.863739 -28.239548,-9.779358c-9.922791,-0.830414 -13.79892,-14.960846 -24.881729,-11.911835"/>
   <path fill="url(#radialGradient6012)" fill-rule="evenodd" stroke-width="1px" marker-start="none" marker-mid="none" marker-end="none" stroke-miterlimit="4" stroke-dashoffset="0" id="path6010" d="m505.679504,336.546722c5.934204,-1.490021 9.584412,-3.901917 11.024902,-9.688843c1.743774,-7.005463 9.249268,-4.351959 12.402954,-2.76825c5.675842,2.850311 5.370728,8.874115 4.134338,13.841217c-1.817566,7.301941 -3.788025,8.652527 1.378113,13.841217c3.975281,3.992615 5.512451,10.673889 5.512451,16.609467c0,4.590881 -6.616516,9.138336 -8.268677,12.457092c-3.130981,6.289276 -5.114502,8.304688 -13.781128,8.304688c-5.057922,0 -9.643524,-5.533234 -12.402954,-8.304688c-3.727509,-3.743835 -9.903107,-4.973206 -13.781067,-6.920654c-7.204224,-3.617798 -9.123749,-1.71759 -12.403015,-8.304688c-1.844208,-3.70459 4.982056,-8.623474 6.890564,-12.457092c3.002258,-6.03067 13.283844,-15.100494 19.293518,-16.609467z"/>
   <path fill="url(#radialGradient6017)" fill-rule="evenodd" stroke-width="1px" marker-start="none" marker-mid="none" marker-end="none" stroke-miterlimit="4" stroke-dashoffset="0" id="path6014" d="m545.644714,178.756927c-10.12085,6.487411 -13.931152,18.415436 -20.613708,27.821548c-2.130249,6.525284 -8.423218,10.483139 -15.217163,9.549728c-7.852844,-0.563919 -13.712433,5.364822 -20.441223,8.332626c-5.089966,5.491669 -9.437073,11.600769 -18.015076,11.484482c-6.563324,0.216263 -10.931152,5.188004 -15.826477,8.788803c-6.594238,1.495102 -15.516083,5.16449 -10.966888,13.759964c5.908051,0.581512 12.584595,-2.792068 17.258301,-6.687393c6.902466,-6.581985 16.695709,-8.375748 25.882751,-8.201035c6.921906,-0.261673 11.088654,-9.7547 18.376068,-6.625336c5.663239,3.249496 15.120667,8.71254 11.527161,16.623108c-2.871887,4.172729 -8.900146,15.788116 1.371643,12.272186c7.914185,-1.55011 8.800049,-10.895142 8.782959,-17.496826c1.320251,-6.700638 3.02887,-13.651901 0.138855,-20.261154c-2.490784,-8.14241 3.939514,-15.095749 7.714111,-21.658478c3.685974,-5.772369 8.464539,-10.688675 12.946533,-15.80246c2.747131,-4.009659 -1.146179,-8.414764 -2.917847,-11.899765z"/>
   <path transform="rotate(-60.7662 303.03 298.559)" fill="url(#radialGradient7775)" fill-rule="evenodd" stroke-width="1.988371" marker-start="none" marker-mid="none" marker-end="none" stroke-miterlimit="4" stroke-dashoffset="0" id="path7041" d="m598.62793,298.559418a295.597595,296.197205 0 1 1 -591.195168,0a295.597595,296.197205 0 1 1 591.195168,0z"/>
  </g>
 </g>
</svg>